<svg width="40" height="40" viewBox="0 0 40 40" fill="none" xmlns="http://www.w3.org/2000/svg">
<g clip-path="url(#clip0)">
<path d="M39.6478 7.94702L27.5166 20.0001L39.6478 32.0531C39.8671 31.5948 40.0001 31.088 40.0001 30.5469V9.45319C40.0001 8.91202 39.8671 8.40538 39.6478 7.94702Z" fill="white"/>
<path d="M36.4847 5.9375H3.51594C2.97477 5.9375 2.46812 6.07055 2.00977 6.28984L17.5147 21.7167C18.8856 23.0876 21.115 23.0876 22.4859 21.7167L37.9909 6.28984C37.5325 6.07055 37.0259 5.9375 36.4847 5.9375Z" fill="white"/>
<path d="M0.352344 7.94702C0.133047 8.40538 0 8.91202 0 9.45319V30.5469C0 31.0881 0.133047 31.5948 0.352344 32.0531L12.4835 20.0001L0.352344 7.94702Z" fill="white"/>
<path d="M25.8597 21.6571L24.143 23.3737C21.8587 25.658 18.1418 25.658 15.8575 23.3737L14.1409 21.6571L2.00977 33.7102C2.46812 33.9294 2.97477 34.0625 3.51594 34.0625H36.4847C37.0259 34.0625 37.5325 33.9294 37.9909 33.7102L25.8597 21.6571Z" fill="white"/>
</g>
<defs>
<clipPath id="clip0">
<rect width="40" height="40" fill="white"/>
</clipPath>
</defs>
</svg>
