<svg width="23" height="23" viewBox="0 0 23 23" fill="none" xmlns="http://www.w3.org/2000/svg">
<path d="M17.1854 10.4837C17.069 10.2264 16.8131 10.0625 16.5313 10.0625H13.6563V0.71875C13.6563 0.322 13.3343 0 12.9376 0H10.0626C9.66584 0 9.34384 0.322 9.34384 0.71875V10.0625H6.46884C6.18709 10.0625 5.93121 10.2278 5.81478 10.4837C5.6969 10.741 5.7429 11.0414 5.92834 11.2542L10.9596 17.0042C11.0961 17.1609 11.2931 17.25 11.5001 17.25C11.7071 17.25 11.904 17.1594 12.0406 17.0042L17.0718 11.2542C17.2587 11.0429 17.3018 10.741 17.1854 10.4837Z" fill="#D60007"/>
<path d="M19.4062 15.8125V20.125H3.59375V15.8125H0.71875V21.5625C0.71875 22.3574 1.36275 23 2.15625 23H20.8438C21.6387 23 22.2812 22.3574 22.2812 21.5625V15.8125H19.4062Z" fill="#D60007"/>
</svg>
