<svg width="171" height="188" viewBox="0 0 171 188" fill="none" xmlns="http://www.w3.org/2000/svg">
<path d="M104.672 79.1294H104.238L104.672 79.8808V79.1294Z" fill="#FEFEFE"/>
<path d="M104.672 79.8809H66.5884V80.4741H104.672V79.8809Z" fill="#FEFEFE"/>
<path d="M66.5884 79.1294V79.8808L67.0226 79.1294H66.5884Z" fill="#FEFEFE"/>
<path d="M43.0511 107.015L42.96 106.971L47.8685 131.555L58.0362 140.877L69.401 119.928C54.6688 117.869 44.0339 112.907 43.0511 107.015Z" fill="#513226"/>
<path d="M77.5178 144.803L69.4888 121.333L58.6206 141.524L62.5943 146.703L77.5178 144.803Z" fill="#513226"/>
<path d="M113.911 116.642L113.55 117.026L120.913 137.64L124.958 109.728C123.091 112.391 119.206 114.769 113.911 116.642Z" fill="#513226"/>
<path d="M113.044 117.573L104.902 141.524L120.27 138.547L113.044 117.573Z" fill="#513226"/>
<path d="M95.6255 136.587L104.478 141.524L112.134 117.233C107.488 118.697 101.919 119.795 95.7755 120.405L95.6255 136.587Z" fill="#513226"/>
<path d="M69.9644 120.008L78.3722 144.695L94.851 136.216V120.496C91.5673 120.793 88.1291 120.952 84.5865 120.952C79.4397 120.952 74.5142 120.616 69.9644 120.008Z" fill="#513226"/>
<path d="M78.8394 145.279L96.6038 157.19L94.8509 136.993L78.8394 145.279Z" fill="#513226"/>
<path d="M95.6255 137.64L97.3054 157.19L116.005 140.1L104.493 142.431L95.6255 137.64Z" fill="#513226"/>
<path d="M1.47239 186.072V172.229H0.000488281V187.653H1.90528L10.6544 173.81V187.653H12.1263V172.229H10.2204L1.47239 186.072Z" fill="#513226"/>
<path d="M23.7732 179.4V179.335C24.8996 178.946 26.0471 177.689 26.0471 176.064C26.0471 173.162 23.6871 171.861 20.7857 171.861C17.5375 171.861 15.1986 173.421 15.0478 176.606H16.476C16.6069 174.266 18.382 173.097 20.8294 173.097C22.9287 173.097 24.5752 174.049 24.5752 176.194C24.5752 177.992 23.1245 178.902 21.4779 178.902H19.0094V180.158H21.4779C23.4488 180.158 24.9868 181.349 24.9868 183.147C24.9868 185.119 23.4051 186.787 20.8068 186.787C17.8619 186.787 15.9571 185.422 15.9571 182.563H14.5488V182.693C14.5488 185.985 16.8664 187.978 20.6984 187.978C25.0293 187.978 26.4587 185.033 26.4587 183.126C26.4587 181.089 25.3972 179.833 23.7732 179.4Z" fill="#513226"/>
<path d="M35.7466 178.728H30.3542V172.229H28.8823V187.653H35.7466C38.5831 187.653 40.3369 185.92 40.3369 183.191C40.3369 180.462 38.5831 178.728 35.7466 178.728ZM35.4211 186.397H30.3542V179.985H35.4211C37.5865 179.985 38.865 181.198 38.865 183.191C38.865 185.184 37.5865 186.397 35.4211 186.397Z" fill="#513226"/>
<path d="M42.5024 187.653H43.9743V172.229H42.5024V187.653Z" fill="#513226"/>
<path d="M53.478 186.743C50.0565 186.743 47.8261 184.057 47.8261 179.963C47.8261 175.87 50.1001 173.139 53.5217 173.139C56.0327 173.139 57.9174 174.569 58.3927 176.865H59.8659C59.519 173.724 56.5315 171.861 53.564 171.861C48.8877 171.861 46.3755 175.631 46.3755 179.963C46.3755 184.837 49.1683 188 53.4343 188C57.1378 188 59.7361 185.552 60.0604 181.74H58.6097C58.2855 184.621 56.5741 186.743 53.478 186.743Z" fill="#513226"/>
<path d="M80.8442 172.186L74.7546 187.291L67.7468 178.534L74.6971 172.23H72.7488L63.7626 180.527V172.23H62.312V187.653H63.7626V182.216L66.7065 179.53L73.1604 187.653H74.6086H75.0439H76.189L78.0725 182.8H85.1315L86.9937 187.653H88.6178L82.4683 172.186H80.8442ZM78.5278 181.61L81.6463 173.572L84.6773 181.61H78.5278Z" fill="#513226"/>
<path d="M86.8418 173.486H92.2555V187.653H93.7274V173.486H99.1409V172.229H86.8418V173.486Z" fill="#513226"/>
<path d="M102.04 180.288H110.68V179.053H102.04V173.486H111.264V172.229H100.568V187.653H111.351V186.397H102.04V180.288Z" fill="#513226"/>
<path d="M115.42 181.696C115.29 185.639 114.64 186.722 113.537 186.722C113.104 186.722 112.303 186.635 112.021 186.461V187.674C112.41 187.848 112.974 187.978 113.58 187.978C115.919 187.978 116.741 185.66 116.828 182.563L117.109 173.486H123.323V187.653H124.797V172.229H115.723L115.42 181.696Z" fill="#513226"/>
<path d="M134.712 178.728H129.32V172.229H127.848V187.653H134.712C137.549 187.653 139.303 185.92 139.303 183.191C139.303 180.462 137.549 178.728 134.712 178.728ZM134.387 186.397H129.32V179.985H134.387C136.552 179.985 137.831 181.198 137.831 183.191C137.831 185.184 136.552 186.397 134.387 186.397Z" fill="#513226"/>
<path d="M141.229 182.367H146.663V181.046H141.229V182.367Z" fill="#513226"/>
<path d="M155.93 179.595C157.511 179.205 158.485 177.949 158.485 176.303C158.485 173.984 156.666 172.424 153.938 172.424C150.884 172.424 149.066 174.245 149.022 177.363H150.299C150.387 174.938 151.664 173.572 153.872 173.572C155.843 173.572 157.099 174.678 157.099 176.368C157.099 177.559 156.449 178.469 155.301 178.902C154.739 179.097 154.327 179.14 153.483 179.14H152.92V180.288C153.245 180.266 153.374 180.266 153.656 180.266C155.734 180.266 157.64 181.003 157.64 183.451C157.64 185.422 156.06 186.809 153.851 186.809C151.426 186.809 149.975 185.336 149.975 182.888V182.823H148.654V183.17C148.654 186.115 150.668 188 153.807 188C156.926 188 159.026 186.094 159.026 183.299C159.026 181.328 157.922 180.006 155.93 179.595Z" fill="#118F40"/>
<path d="M166.041 177.624C164.677 177.624 163.443 178.057 162.597 179.14L163.68 173.898H170.241V172.685H162.685L161.19 180.504L162.403 180.548C163.205 179.356 164.287 178.793 165.759 178.793C168.011 178.793 169.614 180.439 169.614 182.8C169.614 185.119 167.99 186.83 165.78 186.83C163.594 186.83 162.208 185.422 162.099 183.321H160.757C160.822 186.158 162.793 187.978 165.78 187.978C168.834 187.978 170.999 185.704 170.999 182.714C170.999 179.747 168.92 177.624 166.041 177.624Z" fill="#118F40"/>
<path d="M84.5864 118.655C62.1637 118.655 43.8922 112.825 43.0116 105.525C42.9895 105.723 42.9692 105.922 42.9692 106.122C42.9692 106.422 43.0017 106.719 43.0512 107.015C44.0341 112.907 54.669 117.869 69.4012 119.928C69.589 119.954 69.775 119.982 69.9643 120.007C74.5141 120.616 79.4397 120.951 84.5864 120.951C88.129 120.951 91.5673 120.792 94.8509 120.496C95.1615 120.467 95.4674 120.435 95.7753 120.404C101.919 119.795 107.488 118.697 112.134 117.233C112.741 117.042 113.337 116.846 113.911 116.643C119.206 114.769 123.091 112.391 124.958 109.728C125.768 108.573 126.203 107.366 126.203 106.122C126.203 105.922 126.183 105.723 126.161 105.525C125.28 112.825 107.009 118.655 84.5864 118.655Z" fill="#FEFEFE"/>
<path d="M124.996 101.701C125.134 102.841 123.993 107.672 123.993 107.672L118.459 97.1051L118.408 97.007C114.803 95.3558 110.113 93.9789 104.672 92.9912V99.7473H89.3491L89.2877 91.3823C89.2846 91.3822 89.2815 91.382 89.2786 91.3818V99.7473H82.5387H82.4442H66.5884V92.6354C60.8381 93.5435 55.8293 94.8752 51.9155 96.5046L50.9846 98.7759L45.0166 107.206C45.0166 107.206 44.3856 104.22 44.7336 102.375C44.8401 101.809 44.9482 101.236 45.0486 100.703C43.7056 102.048 42.9692 103.482 42.9692 104.974C42.9692 105.159 42.9895 105.342 43.0116 105.525C43.8922 112.825 62.1638 118.656 84.5864 118.656C107.009 118.656 125.28 112.825 126.161 105.525C126.183 105.342 126.203 105.159 126.203 104.974C126.203 103.846 125.779 102.75 124.996 101.701Z" fill="#118F40"/>
<path d="M118.613 97.1012C118.601 97.096 118.59 97.0908 118.579 97.0854L118.459 97.1049L118.613 97.1012Z" fill="#118F40"/>
<path d="M50.9845 98.7761L48.2421 98.3101C48.0622 98.4158 47.8876 98.5227 47.7158 98.6302L50.9845 98.7761Z" fill="#118F40"/>
<path d="M104.672 80.4741H66.5884V80.9764V92.6354V99.7474H82.4442V87.3767L84.3288 85.9429L85.6304 84.7769L85.7454 84.8653L85.8615 84.7769L89.2786 87.3767V91.3819C89.2815 91.382 89.2846 91.3822 89.2877 91.3824L89.3491 99.7474H104.672V92.9913V80.9764V80.4741ZM100.191 94.0096H94.2784V87.462L97.2347 85.01L100.191 87.462V94.0096ZM71.0697 94.0096V87.462L74.026 85.01L76.9823 87.462V94.0096H71.0697Z" fill="#513226"/>
<path d="M104.238 79.1292L100.013 71.8127H98.4892L98.3099 69.4819H95.1737L94.905 71.6334L71.2481 71.8127L67.0226 79.1292L66.5884 79.8806H104.672L104.238 79.1292ZM85.5406 73.247L89.8867 77.281H81.1947L85.5406 73.247Z" fill="#118F40"/>
<path d="M85.5409 73.2471L81.1948 77.281H89.8869L85.5409 73.2471Z" fill="#FEFEFE"/>
<path d="M76.9824 87.4619L74.0261 85.0098L71.0698 87.4619V94.0096H76.9824V87.4619Z" fill="#FEFEFE"/>
<path d="M94.2783 87.4619V94.0096H100.191V87.4619L97.2346 85.0098L94.2783 87.4619Z" fill="#FEFEFE"/>
<path d="M89.2789 87.3768L85.8618 84.7769L85.7457 84.8652L84.329 85.943L82.4443 87.3768V99.7475H82.5388H89.2789V91.382V87.3768Z" fill="#FEFEFE"/>
<path d="M85.0492 26.0269H79.2619L48.0151 91.4338L53.5298 92.567L85.0492 26.0269Z" fill="#B1B0B3"/>
<path d="M116.017 92.4063L121.588 91.5737L96.7372 26.0269H90.8511L116.017 92.4063Z" fill="#B1B0B3"/>
<path d="M95.098 7.27746H98.3362V5.91478V0.899721V0.319336H77.4165V7.27746H80.6547H95.098ZM92.8242 0.899721C94.5081 0.899721 95.879 2.27101 95.879 3.95564C95.879 5.64027 94.5081 7.01042 92.8242 7.01042C91.1402 7.01042 89.7706 5.64027 89.7706 3.95564C89.7706 2.27101 91.1402 0.899721 92.8242 0.899721Z" fill="#513226"/>
<path d="M80.9741 9.15526H94.779V7.59668H80.9741V9.15526Z" fill="#513226"/>
<path d="M80.9741 11.0337H81.5567H94.1964H94.779V9.4751H80.9741V11.0337Z" fill="#513226"/>
<path d="M81.5567 12.2925H80.9741V15.9637H94.779V12.2925H94.1964H81.5567Z" fill="#513226"/>
<path d="M93.2905 16.9883H82.4619V20.6595H93.2905V16.9883Z" fill="#513226"/>
<path d="M96.6236 25.7072L94.8647 20.979H93.6099H82.1425H80.8877L79.1289 25.7072H96.6236Z" fill="#513226"/>
<path d="M90.8511 26.0266H96.7372H97.0825L95.0866 20.6595H94.7024H94.7009H93.6098V16.6689H82.1426V20.6595H80.6656L78.6699 26.0266H79.2618H85.049H90.8511ZM82.1426 20.979H93.6098H94.8646L96.6234 25.7072H79.1289L80.8878 20.979H82.1426ZM82.462 16.9883H93.2904V20.6595H82.462V16.9883Z" fill="#FEFEFE"/>
<path d="M81.8755 11.9732H93.8767V11.353H81.8755V11.9732Z" fill="#513226"/>
<path d="M123.993 107.672C123.993 107.672 125.134 102.841 124.996 101.701C124.995 101.691 124.995 101.676 124.994 101.667C124.832 100.583 123.503 96.9839 123.503 96.9839L118.613 97.1012L118.459 97.1049L123.993 107.672Z" fill="#513226"/>
<path d="M44.7336 102.374C44.3856 104.22 45.0166 107.206 45.0166 107.206L50.9846 98.7757L47.7159 98.6298L45.4587 98.5293C45.4587 98.5293 45.2759 99.4974 45.0486 100.703C44.9482 101.235 44.8401 101.809 44.7336 102.374Z" fill="#513226"/>
<path d="M92.8242 6.69123C94.3323 6.69123 95.5597 5.46451 95.5597 3.9558C95.5597 2.44726 94.3323 1.21924 92.8242 1.21924C91.3161 1.21924 90.0898 2.44726 90.0898 3.9558C90.0898 5.46451 91.3161 6.69123 92.8242 6.69123Z" fill="#B1B0B3"/>
<path d="M92.8241 7.0106C94.508 7.0106 95.8789 5.64045 95.8789 3.95582C95.8789 2.27119 94.508 0.899902 92.8241 0.899902C91.1401 0.899902 89.7705 2.27119 89.7705 3.95582C89.7705 5.64045 91.1401 7.0106 92.8241 7.0106ZM92.8241 1.21925C94.3322 1.21925 95.5596 2.44727 95.5596 3.95582C95.5596 5.46453 94.3322 6.69125 92.8241 6.69125C91.316 6.69125 90.0897 5.46453 90.0897 3.95582C90.0897 2.44727 91.316 1.21925 92.8241 1.21925Z" fill="#FEFEFE"/>
<path d="M98.6558 5.5956H100.096V4.81932V2.15276V1.21924H98.6558V5.5956Z" fill="#B1B0B3"/>
<path d="M100.416 4.49954H101.27V2.47168H100.416V4.49954Z" fill="#B1B0B3"/>
<path d="M77.097 0.319336H75.8521V7.27746H77.097V0.319336Z" fill="#B1B0B3"/>
<path d="M77.4162 7.59699H80.6544V9.15557V9.47508V11.353H81.5564V11.9732H80.6544V16.2834H95.0978V11.9732H94.196V11.353H95.0978V9.47508V9.15557V7.59699H98.6553V5.9148H100.415V4.81916H101.589V2.15261H100.415V0.899735H98.6553V0H77.4162H77.097H75.5327V7.59699H77.097H77.4162ZM75.8521 0.31935H77.097V7.27748H75.8521V0.31935ZM77.4162 0.31935H98.336V0.899735V5.9148V7.27748H95.0978H80.6544H77.4162V0.31935ZM101.27 4.49981H100.415V2.47196H101.27V4.49981ZM100.096 2.15261V4.81916V5.59545H98.6553V1.21909H100.096V2.15261ZM94.7785 11.0337H94.196H81.5564H80.9738V9.47508H94.7785V11.0337ZM94.7785 15.9639H80.9738V12.2927H81.5564H94.196H94.7785V15.9639ZM93.8767 11.9732H81.8756V11.353H93.8767V11.9732ZM94.7785 9.15557H80.9738V7.59699H94.7785V9.15557Z" fill="#FEFEFE"/>
<path d="M50.9846 98.776L51.9155 96.5046L53.5298 92.5668L48.0152 91.4337L47.045 91.2344L44.6289 97.6959L48.2422 98.3099L50.9846 98.776Z" fill="#513226"/>
<path d="M118.409 97.007L118.459 97.1051L118.579 97.0856L124.323 96.1467L122.207 91.3818L116.018 92.4062L118.409 97.007Z" fill="#513226"/>
</svg>
