<svg width="27" height="28" viewBox="0 0 27 28" fill="none" xmlns="http://www.w3.org/2000/svg">
<g clip-path="url(#clip0)">
<path d="M19.8538 0.959961H7.74632C3.80583 0.959961 0.600098 4.16569 0.600098 8.10619V20.2139C0.600098 24.1542 3.80583 27.3599 7.74632 27.3599H19.854C23.7943 27.3599 27 24.1542 27 20.2139V8.10619C27 4.16569 23.7943 0.959961 19.8538 0.959961V0.959961ZM13.8001 21.3785C9.8197 21.3785 6.58154 18.1403 6.58154 14.1599C6.58154 10.1796 9.8197 6.9414 13.8001 6.9414C17.7804 6.9414 21.0186 10.1796 21.0186 14.1599C21.0186 18.1403 17.7804 21.3785 13.8001 21.3785ZM21.1912 8.64377C20.015 8.64377 19.0582 7.68704 19.0582 6.51077C19.0582 5.33451 20.015 4.37758 21.1912 4.37758C22.3675 4.37758 23.3244 5.33451 23.3244 6.51077C23.3244 7.68704 22.3675 8.64377 21.1912 8.64377Z" fill="#ca0006"/>
<path d="M13.8 8.48914C10.6732 8.48914 8.12915 11.033 8.12915 14.16C8.12915 17.2868 10.6732 19.8308 13.8 19.8308C16.927 19.8308 19.4709 17.2868 19.4709 14.16C19.4709 11.033 16.927 8.48914 13.8 8.48914Z" fill="#ca0006"/>
<path d="M21.1913 5.92542C20.8686 5.92542 20.606 6.18806 20.606 6.51073C20.606 6.8334 20.8686 7.09604 21.1913 7.09604C21.5141 7.09604 21.7768 6.8336 21.7768 6.51073C21.7768 6.18786 21.5141 5.92542 21.1913 5.92542Z" fill="#ca0006"/>
</g>
<defs>
<clipPath id="clip0">
<rect width="26.4" height="26.4" fill="white" transform="translate(0.600098 0.959961)"/>
</clipPath>
</defs>
</svg>
