<svg width="109" height="117" viewBox="0 0 109 117" fill="none" xmlns="http://www.w3.org/2000/svg">
<path fill-rule="evenodd" clip-rule="evenodd" d="M94.8434 40.6191C94.6607 40.7664 94.6714 40.7518 94.5001 40.9084C84.7083 49.8575 84.9189 42.9041 71.4747 39.1542L69.7545 38.7638C68.254 38.5125 67.7603 38.4686 66.0975 38.6839C64.8907 38.8401 63.8369 39.1882 62.7222 39.5547C62.7017 39.5393 62.6686 39.4939 62.6588 39.51L62.3978 39.3387C62.258 39.2542 62.1525 39.1993 61.9968 39.1158C61.7072 38.9601 61.4355 38.8333 61.0883 38.7193C60.3402 38.474 59.8091 38.3839 59.0149 38.2884C59.1702 37.5296 60.2719 36.7781 60.8965 36.3624C61.4957 35.9633 63.7763 35.2133 64.7432 35.0049C65.085 34.9313 65.3617 34.9649 65.486 34.6817C66.1772 33.1064 61.9754 31.2722 64.7899 29.87C69.3381 27.6048 66.9448 31.7697 68.7642 33.8278C69.3674 33.8229 71.5047 33.1859 72.0228 32.9323C72.1845 30.5372 69.6154 28.1059 72.3594 27.2668C76.274 26.0698 74.9372 27.724 74.95 29.6914C74.9594 31.1514 74.7211 31.606 75.3884 32.3587C76.1944 32.3969 77.835 32.1059 78.3496 31.8193C80.7965 29.3463 74.9166 26.848 82.2512 25.3195C90.7974 23.5388 82.7917 29.1878 84.1747 31.0076C84.4262 31.3385 86.7133 31.4035 87.7316 30.9748C93.6961 28.4644 91.0401 27.5533 94.1733 25.8192C97.2254 24.1303 103.184 22.142 105.348 25.7706C107.741 29.7828 98.7345 37.4826 94.8431 40.619L94.8434 40.6191Z" fill="#2B2A29"/>
<path fill-rule="evenodd" clip-rule="evenodd" d="M14.7064 40.6191C14.8892 40.7664 14.8785 40.7518 15.0497 40.9084C24.8415 49.8575 24.6311 42.9041 38.0751 39.1542L39.7955 38.7638C41.2959 38.5125 41.7897 38.4686 43.4525 38.6839C44.6592 38.8401 45.7131 39.1882 46.8277 39.5547C46.8483 39.5393 46.8812 39.4939 46.8911 39.51L47.152 39.3387C47.292 39.2542 47.3974 39.1993 47.553 39.1158C47.8426 38.9601 48.1145 38.8333 48.4616 38.7193C49.2096 38.474 49.7408 38.3839 50.5349 38.2884C50.3797 37.5296 49.2779 36.7781 48.6534 36.3624C48.0543 35.9633 45.7736 35.2133 44.8068 35.0049C44.4649 34.9313 44.1882 34.9649 44.0639 34.6817C43.3726 33.1064 47.5744 31.2722 44.7601 29.87C40.2119 27.6048 42.6052 31.7697 40.7856 33.8278C40.1826 33.8229 38.0452 33.1859 37.5271 32.9323C37.3653 30.5372 39.9344 28.1059 37.1904 27.2668C33.2758 26.0698 34.6126 27.724 34.5999 29.6914C34.5905 31.1514 34.8289 31.606 34.1616 32.3587C33.3556 32.3969 31.7148 32.1059 31.2003 31.8193C28.7535 29.3463 34.6332 26.848 27.2988 25.3195C18.7526 23.5388 26.7583 29.1878 25.3751 31.0076C25.1237 31.3385 22.8365 31.4035 21.8183 30.9748C15.8537 28.4644 18.5099 27.5533 15.3764 25.8192C12.3243 24.1303 6.36559 22.142 4.20135 25.7706C1.80852 29.7828 10.8153 37.4826 14.7066 40.619L14.7064 40.6191Z" fill="#2B2A29"/>
<path fill-rule="evenodd" clip-rule="evenodd" d="M85.3034 7.941C97.5949 13.1244 108.841 19.7842 108.841 26.1341V28.9323C108.841 84.7904 83.0827 116.235 56.6465 116.841C28.7798 117.479 0.159302 84.3389 0.159302 28.9323V26.1341C0.222618 19.5321 12.1591 12.6312 24.8586 7.38484C48.8565 -2.52912 61.3586 -2.15623 85.3036 7.94085L85.3034 7.941Z" stroke="#2B2A29" stroke-width="0.199961" stroke-miterlimit="22.9256"/>
<path fill-rule="evenodd" clip-rule="evenodd" d="M63.4632 41.8379C64.2506 41.3145 62.6148 40.116 62.2687 39.94C58.1801 37.8603 46.7618 37.3786 46.2654 41.8948C53.9934 44.6918 49.8317 45.0516 50.2276 45.7897C50.0013 45.8583 44.8929 42.4032 43.7349 43.3422C42.9288 43.9959 43.335 45.5098 43.3592 46.4106C43.7355 46.5545 44.1593 46.6448 44.7431 46.5872C44.7014 44.606 45.9606 46.6648 46.9649 46.8421C46.7582 47.5983 46.4603 47.3766 46.6479 48.4644C46.8132 49.4217 47.3048 50.7038 48.922 50.2347C49.5021 50.0667 49.7718 49.6435 50.1581 49.3125C50.0847 50.7531 48.884 51.3049 47.1817 51.0998C45.2295 50.8644 45.1469 49.9527 44.5299 48.9823C43.7942 48.966 43.8823 48.8312 43.7543 49.3583C43.7107 49.5383 44.0718 52.7765 43.5196 56.4355C42.8353 60.9695 41.2139 66.1116 41.2021 66.4218C41.7497 66.322 42.0199 66.1502 42.5305 65.9865C43.9119 65.5432 45.6297 65.1118 47.1564 65.1151C46.9916 65.2114 47.2252 65.1061 46.9038 65.2309C44.0013 66.1699 39.5588 67.2971 37.9275 69.2186C36.1711 71.2873 36.8031 73.4524 37.8441 75.6078C38.3912 76.7411 39.9626 79.5251 40.6443 80.3036C40.9646 80.6694 41.8933 81.1893 42.0329 81.3479C40.827 81.4482 39.7865 79.0533 38.948 78.8209C38.2624 80.929 38.0913 84.6363 41.3884 85.3962C41.7474 85.208 41.7876 85.0853 42.1434 84.8765L44.5027 83.6277C50.9633 80.7265 60.9139 78.4826 66.7862 82.2788L68.2063 83.2093C71.5852 82.8085 71.6265 78.5987 71.2218 76.8782C70.8569 77.1684 69.1665 79.0484 68.6069 79.1419L67.9706 79.071C71.568 77.2929 73.2392 72.5345 71.9355 69.562C70.9964 67.4217 68.3843 66.9609 64.4475 65.6591C63.9191 65.4846 63.328 65.3898 62.8666 65.1114C65.7783 65.1284 67.9388 66.3277 68.7982 66.4648C66.8307 58.5643 66.203 57.742 66.2407 48.9694L65.3755 48.9722C65.1918 49.3229 65.0782 49.8036 64.7638 50.1479C63.5054 51.5263 59.8439 51.7009 59.8545 49.3362L60.2103 49.6837C60.4769 50.0047 60.875 50.3169 61.5091 50.3199C62.6187 50.3251 63.3198 49.4314 63.3207 48.4394C63.322 47.1311 63.3969 47.8667 63.0415 46.8854C63.8207 46.4334 64.5442 45.6791 65.1504 45.7648C65.3295 46.0475 65.2632 46.2464 65.2632 46.617C65.9598 46.6176 65.8919 46.5826 66.4423 46.4858C66.7659 45.7624 66.85 44.3779 66.5008 43.7376C65.068 43.369 58.4536 46.6125 58.8816 45.7359C58.9612 45.5726 59.1127 45.4392 59.1485 45.2803C59.5379 43.5582 62.4191 43.4138 63.4633 41.8378L63.4632 41.8379Z" fill="black"/>
<path fill-rule="evenodd" clip-rule="evenodd" d="M52.6021 38.4634C49.31 38.6921 46.5059 39.7066 46.2655 41.8946C53.9935 44.6916 49.8317 45.0514 50.2277 45.7895C50.0015 45.8581 44.8929 42.403 43.735 43.342C42.929 43.9957 43.3351 45.5096 43.3593 46.4104C43.7355 46.5543 44.1595 46.6446 44.7433 46.587C44.7015 44.6058 45.9606 46.6646 46.9651 46.8419C46.7584 47.5981 46.4604 47.3764 46.648 48.4642C46.8133 49.4215 47.3048 50.7036 48.9222 50.2345C49.5022 50.0665 49.772 49.6433 50.1582 49.3123C50.0848 50.7529 48.8841 51.3047 47.1819 51.0996C45.2296 50.8642 45.1471 49.9525 44.53 48.9821C43.7943 48.9658 43.8825 48.831 43.7544 49.3581C43.7108 49.5381 44.0719 52.7763 43.5199 56.4353C42.8356 60.9693 41.214 66.1114 41.2022 66.4216C41.7499 66.3218 42.0201 66.15 42.5306 65.9862C43.9119 65.543 45.6299 65.1116 47.1566 65.1149C46.9918 65.2112 47.2253 65.1059 46.9039 65.2307C44.0015 66.1697 39.5589 67.2969 37.9275 69.2184C36.1712 71.287 36.8033 73.4521 37.8443 75.6076C38.3913 76.7409 39.9629 79.5249 40.6445 80.3034C40.9648 80.6692 41.8934 81.1891 42.0331 81.3477C40.8271 81.448 39.7866 79.0531 38.9481 78.8207C38.2625 80.9287 38.0915 84.6361 41.3886 85.396C41.7475 85.2078 41.7877 85.0851 42.1436 84.8763L44.5029 83.6275C46.8015 82.5955 49.5417 81.6468 52.3827 81.0235C52.1015 80.6534 51.8336 80.2982 51.608 79.9412C50.5631 78.2878 47.8348 73.2428 47.3703 69.8787C46.906 66.5148 52.5683 64.0207 52.5683 64.0207C52.5683 64.0207 54.6015 48.4771 54.6015 44.0692C54.6015 41.8897 53.6076 39.9091 52.6024 38.4633L52.6021 38.4634Z" fill="#9D231F"/>
<path fill-rule="evenodd" clip-rule="evenodd" d="M44.6906 84.7778C44.6906 84.7778 45.1461 85.8294 45.2049 85.9613C45.3917 86.3793 45.616 86.6525 45.899 87.0149C46.3024 87.5312 46.4572 87.5208 47.2276 87.5177C48.4084 87.5127 50.9313 87.058 52.0567 86.8611L55.0665 86.3531C56.5087 86.1348 59.6815 86.9344 61.2411 87.1664C62.3155 87.3262 63.4358 87.516 64.6046 87.5185C65.3787 87.52 65.4765 87.4434 65.8812 86.9673C66.0954 86.7152 66.3221 86.2517 66.4778 85.9292C67.1337 84.5681 67.0634 84.6791 65.779 84.0843C61.2497 81.9873 51.2441 82.2516 47.0154 83.6533C46.4689 83.8344 45.5297 84.1305 45.0886 84.4062C44.8708 84.5423 44.8656 84.6206 44.6904 84.7778H44.6906Z" fill="black"/>
<path fill-rule="evenodd" clip-rule="evenodd" d="M44.6904 84.7778C44.6904 84.7778 45.1459 85.8294 45.2049 85.9613C45.3916 86.3793 45.6158 86.6525 45.8989 87.0149C46.3022 87.5312 46.4571 87.5208 47.2274 87.5177C48.4082 87.5127 50.9313 87.058 52.0565 86.8611L54.6008 86.4317V86.4316C54.6007 84.8346 54.123 83.6334 53.5137 82.6268C50.9369 82.772 48.5803 83.1346 47.0154 83.6534C46.4689 83.8345 45.5297 84.1307 45.0886 84.4063C44.8708 84.5425 44.8656 84.6208 44.6904 84.778V84.7778Z" fill="#9D231F"/>
<path fill-rule="evenodd" clip-rule="evenodd" d="M32.1874 44.1944C34.4592 44.771 35.1327 45.3093 37.9084 45.2808C38.7274 45.2724 41.2455 45.3738 42.0179 45.2822C41.725 40.3467 43.8123 44.0047 45.8156 40.7143C42.0888 39.787 40.5507 39.8586 36.9408 40.6352C35.8065 40.8794 35.2834 41.1891 34.3456 41.5809C33.5295 41.922 32.6196 42.4312 31.9614 43.0036C30.8138 44.0024 31.2976 43.9719 32.1876 44.1944H32.1874Z" fill="#9D231F"/>
<path fill-rule="evenodd" clip-rule="evenodd" d="M32.1874 44.1944C34.4592 44.771 35.1327 45.3093 37.9084 45.2808C38.7274 45.2724 41.2455 45.3738 42.0179 45.2822C41.725 40.3467 43.8123 44.0047 45.8156 40.7143C42.0888 39.787 40.5507 39.8586 36.9408 40.6352C35.8065 40.8794 35.2834 41.1891 34.3456 41.5809C33.5295 41.922 32.6196 42.4312 31.9614 43.0036C30.8138 44.0024 31.2976 43.9719 32.1876 44.1944H32.1874Z" fill="#9D231F"/>
<path fill-rule="evenodd" clip-rule="evenodd" d="M77.586 44.1944C75.314 44.771 74.6407 45.3093 71.865 45.2808C71.0459 45.2724 68.5279 45.3738 67.7553 45.2822C68.0485 40.3467 65.9611 44.0047 63.9578 40.7143C67.6844 39.787 69.2226 39.8586 72.8326 40.6352C73.9667 40.8794 74.4898 41.1891 75.4278 41.5809C76.2438 41.922 77.1538 42.4312 77.8119 43.0036C78.9595 44.0024 78.4757 43.9719 77.5858 44.1944H77.586Z" fill="black"/>
<path fill-rule="evenodd" clip-rule="evenodd" d="M94.8434 40.6191C94.6607 40.7664 94.6714 40.7518 94.5001 40.9084C84.7083 49.8575 84.9189 42.9041 71.4747 39.1542L69.7545 38.7638C68.254 38.5125 67.7603 38.4686 66.0975 38.6839C64.8907 38.8401 63.8369 39.1882 62.7222 39.5547C62.7017 39.5393 62.6686 39.4939 62.6588 39.51L62.3978 39.3387C62.258 39.2542 62.1525 39.1993 61.9968 39.1158C61.7072 38.9601 61.4355 38.8333 61.0883 38.7193C60.3402 38.474 59.8091 38.3839 59.0149 38.2884C59.1702 37.5296 60.2719 36.7781 60.8965 36.3624C61.4957 35.9633 63.7763 35.2133 64.7432 35.0049C65.085 34.9313 65.3617 34.9649 65.486 34.6817C66.1772 33.1064 61.9754 31.2722 64.7899 29.87C69.3381 27.6048 66.9448 31.7697 68.7642 33.8278C69.3674 33.8229 71.5047 33.1859 72.0228 32.9323C72.1845 30.5372 69.6154 28.1059 72.3594 27.2668C76.274 26.0698 74.9372 27.724 74.95 29.6914C74.9594 31.1514 74.7211 31.606 75.3884 32.3587C76.1944 32.3969 77.835 32.1059 78.3496 31.8193C80.7965 29.3463 74.9166 26.848 82.2512 25.3195C90.7974 23.5388 82.7917 29.1878 84.1747 31.0076C84.4262 31.3385 86.7133 31.4035 87.7316 30.9748C93.6961 28.4644 91.0401 27.5533 94.1733 25.8192C97.2254 24.1303 103.184 22.142 105.348 25.7706C107.741 29.7828 98.7345 37.4826 94.8431 40.619L94.8434 40.6191Z" fill="#E31E24"/>
<path fill-rule="evenodd" clip-rule="evenodd" d="M14.7064 40.6191C14.8892 40.7664 14.8785 40.7518 15.0497 40.9084C24.8415 49.8575 24.6311 42.9041 38.0751 39.1542L39.7955 38.7638C41.2959 38.5125 41.7897 38.4686 43.4525 38.6839C44.6592 38.8401 45.7131 39.1882 46.8277 39.5547C46.8483 39.5393 46.8812 39.4939 46.8911 39.51L47.152 39.3387C47.292 39.2542 47.3974 39.1993 47.553 39.1158C47.8426 38.9601 48.1145 38.8333 48.4616 38.7193C49.2096 38.474 49.7408 38.3839 50.5349 38.2884C50.3797 37.5296 49.2779 36.7781 48.6534 36.3624C48.0543 35.9633 45.7736 35.2133 44.8068 35.0049C44.4649 34.9313 44.1882 34.9649 44.0639 34.6817C43.3726 33.1064 47.5744 31.2722 44.7601 29.87C40.2119 27.6048 42.6052 31.7697 40.7856 33.8278C40.1826 33.8229 38.0452 33.1859 37.5271 32.9323C37.3653 30.5372 39.9344 28.1059 37.1904 27.2668C33.2758 26.0698 34.6126 27.724 34.5999 29.6914C34.5905 31.1514 34.8289 31.606 34.1616 32.3587C33.3556 32.3969 31.7148 32.1059 31.2003 31.8193C28.7535 29.3463 34.6332 26.848 27.2988 25.3195C18.7526 23.5388 26.7583 29.1878 25.3751 31.0076C25.1237 31.3385 22.8365 31.4035 21.8183 30.9748C15.8537 28.4644 18.5099 27.5533 15.3764 25.8192C12.3243 24.1303 6.36559 22.142 4.20135 25.7706C1.80852 29.7828 10.8153 37.4826 14.7066 40.619L14.7064 40.6191Z" fill="#E31E24"/>
<path fill-rule="evenodd" clip-rule="evenodd" d="M14.7063 40.619C14.8892 40.7663 14.8784 40.7517 15.0496 40.9083C24.8415 49.8574 24.6309 42.904 38.075 39.1541L39.7954 38.7637C41.2958 38.5124 41.7896 38.4685 43.4524 38.6839C44.6592 38.84 45.713 39.1881 46.8276 39.5546C46.8481 39.5393 46.8813 39.4938 46.8911 39.51L47.1519 39.3386C47.2919 39.2541 47.3973 39.1992 47.5529 39.1157C47.8425 38.96 48.1144 38.8332 48.4615 38.7192C45.0828 36.0372 41.8554 36.8774 31.2878 38.4119C19.0541 40.1886 10.5649 36.0144 5.09018 24.7318C4.75047 25.0097 4.45049 25.3522 4.20111 25.7702C1.80828 29.7824 10.815 37.4822 14.7063 40.6186V40.619Z" fill="#2B2A29"/>
<path fill-rule="evenodd" clip-rule="evenodd" d="M94.8434 40.619C94.6606 40.7663 94.6715 40.7517 94.5002 40.9083C84.7083 49.8574 84.9189 42.904 71.4747 39.1541L69.7543 38.7637C68.254 38.5124 67.7603 38.4685 66.0975 38.6839C64.8906 38.84 63.8369 39.1881 62.7223 39.5546C62.7017 39.5393 62.6686 39.4938 62.6589 39.51L62.3978 39.3386C62.258 39.2541 62.1525 39.1992 61.9968 39.1157C61.7073 38.96 61.4354 38.8332 61.0884 38.7192C64.467 36.0372 67.6945 36.8774 78.2622 38.4119C90.4959 40.1886 98.9851 36.0144 104.46 24.7318C104.799 25.0097 105.099 25.3522 105.349 25.7702C107.741 29.7824 98.7347 37.4822 94.8434 40.6186V40.619Z" fill="#2B2A29"/>
<path fill-rule="evenodd" clip-rule="evenodd" d="M39.5862 72.2341C40.1434 71.651 40.9908 70.9458 41.9858 70.8486C39.2749 76.4674 45.3999 78.3071 45.4422 79.9294C44.5916 80.2602 38.0545 73.8381 39.5863 72.2343L39.5862 72.2341Z" fill="#FEFEFE"/>
<path fill-rule="evenodd" clip-rule="evenodd" d="M69.8699 70.9603C69.4877 70.7099 69.0519 70.5163 68.5805 70.4702C70.5329 76.3804 65.419 77.3769 65.3799 78.8788C65.8776 79.0725 68.4768 76.7702 69.966 74.6739C71.0569 73.138 71.6789 72.1455 69.8699 70.9603Z" fill="#FEFEFE"/>
<path fill-rule="evenodd" clip-rule="evenodd" d="M20.7686 47.2047C20.7755 47.2881 20.7797 47.3799 20.7791 47.486L21.6536 59.7055C21.6818 59.9866 21.734 59.9719 21.7555 60.3121C21.831 61.5083 22.3203 66.2903 22.5602 67.6341C23.2612 71.5588 23.4243 74.9724 25.6011 78.4233L27.7537 81.1788C32.2231 85.3323 35.1654 87.8895 40.3982 91.6063L47.2189 96.0069C49.0576 96.9717 50.7387 98.1509 52.5622 99.1468C54.4882 100.198 54.7142 100.198 56.6404 99.1468C58.4638 98.1509 60.1449 96.9717 61.9836 96.0069L68.8044 91.6063C74.037 87.8895 76.9795 85.3323 81.4489 81.1788L83.6013 78.4233C85.7781 74.9724 85.9414 71.5588 86.6422 67.6341C86.8823 66.2903 87.3716 61.5083 87.447 60.3121C87.4684 59.9719 87.5204 59.9865 87.5488 59.7055L88.4233 47.486C88.4227 47.3801 88.4268 47.2881 88.434 47.2047C87.7066 47.4568 87.0345 47.5581 86.3798 47.5404C86.1468 49.6111 85.6206 57.018 85.5857 58.0069L84.8267 65.3535C84.6831 67.1748 84.108 70.5228 83.749 72.217C83.4166 73.7855 83.0951 74.9333 82.4464 76.3069C82.2889 76.6407 82.1585 76.8036 81.9649 77.1379C79.0939 82.0908 68.9982 89.3018 64.1385 92.2257C63.7805 92.4409 63.6318 92.6093 63.3086 92.8078L59.0904 95.4024C58.7914 95.5864 58.4959 95.723 58.1824 95.9163C57.4673 96.3576 57.0651 96.5381 56.4461 96.9217C54.5823 98.0768 54.6012 98.0393 52.7565 96.9217C52.1373 96.5379 51.735 96.3574 51.0201 95.9163C50.7065 95.723 50.411 95.5864 50.1121 95.4024L45.894 92.8078C45.5707 92.6092 45.4219 92.4409 45.064 92.2257C40.2042 89.3017 30.1085 82.0908 27.2375 77.1379C27.044 76.8036 26.9138 76.6407 26.7561 76.3069C26.1071 74.9333 25.7858 73.7855 25.4533 72.217C25.0942 70.5228 24.5194 67.1748 24.3757 65.3535L23.6169 58.0069C23.5819 57.018 23.0555 49.6111 22.8226 47.5404C22.168 47.5581 21.4958 47.4568 20.7686 47.2047Z" fill="#9D231F"/>
<path fill-rule="evenodd" clip-rule="evenodd" d="M29.3205 24.3822C29.4406 24.4197 29.5548 24.4575 29.6636 24.4958C31.4759 24.8926 32.4368 25.352 32.9045 25.8579C40.7112 24.796 49.8789 23.1514 57.7411 23.6186C63.9148 23.9856 70.4789 25.0391 76.5996 25.8894C77.0124 25.3367 77.9562 24.8357 79.8818 24.4076C74.0922 22.9323 63.675 21.8361 57.7281 21.5167C49.2095 21.059 37.986 23.232 29.3203 24.3823L29.3205 24.3822Z" fill="#9D231F"/>
<path d="M21.564 16.8864C21.6109 17.042 21.7164 17.0949 21.8807 17.0456C22.3997 16.8898 22.5758 16.5355 22.4093 15.9826C22.2613 15.4898 21.9796 15.3061 21.5666 15.4301C21.2965 15.5112 21.1911 15.6466 21.2482 15.8367L21.564 16.8864ZM22.6525 20.6294C22.7593 20.9837 22.9551 21.1178 23.2405 21.0322C23.714 20.89 23.8456 20.4737 23.6376 19.7825C23.4374 19.1172 23.1018 18.8553 22.6283 18.9975C22.3429 19.0831 22.2429 19.2687 22.3295 19.556L22.6525 20.6295V20.6294ZM21.5116 13.4683C22.9039 13.0502 23.8255 13.5907 24.2759 15.0875C24.5996 16.1632 24.5064 16.8955 23.9953 17.2892C24.4063 17.3306 24.7427 17.5166 25.0071 17.8472C25.2595 18.1531 25.4862 18.6406 25.6884 19.3124C25.984 20.2954 25.9918 21.0727 25.7139 21.646C25.4362 22.2193 24.8509 22.6401 23.9559 22.9088L22.1657 23.4465C21.8739 23.5342 21.6525 23.5583 21.4977 23.5223C21.3731 23.4914 21.1886 23.0664 20.9423 22.2476C20.8689 22.0037 20.7767 21.6664 20.6675 21.2327C20.5589 20.8015 20.4766 20.4965 20.422 20.3148C20.3408 20.0449 20.2145 19.6565 20.0404 19.1482C19.867 18.6421 19.7458 18.2711 19.6743 18.0336C19.6127 17.8283 19.5065 17.4528 19.3593 16.9081C19.2118 16.3635 19.0888 15.9224 18.9873 15.5855C18.962 15.5012 18.9143 15.3742 18.8471 15.2059C18.7799 15.0377 18.7339 14.9079 18.7072 14.8193C18.6085 14.491 18.8422 14.2417 19.4064 14.0724C19.4909 14.0471 19.5959 14.0201 19.7218 13.9918C19.8476 13.9634 19.9311 13.9429 19.9723 13.9308L21.5114 13.4685L21.5116 13.4683ZM26.2314 17.2831C26.032 16.3434 25.9111 15.6542 25.8663 15.214C25.8009 14.5476 25.8365 13.9752 25.9679 13.4956C26.2491 12.5045 27.0468 11.8698 28.3629 11.591C29.3502 11.3821 30.1316 11.5302 30.7047 12.0337C31.2781 12.5393 31.7011 13.4342 31.9744 14.7228L32.0652 15.1509C32.5202 17.2957 32.6911 18.689 32.5804 19.3306C32.3762 20.4895 31.5464 21.2232 30.0934 21.531C29.0245 21.7574 28.1925 21.5231 27.6 20.83C27.0544 20.194 26.598 19.011 26.2314 17.2833V17.2831ZM28.864 18.0745C28.9459 18.4607 29.0201 18.724 29.0855 18.8577C29.2341 19.1558 29.4439 19.2752 29.7178 19.2172C30.0423 19.1484 30.2154 18.9411 30.2363 18.5933C30.2469 18.3489 30.1662 17.8171 29.9935 17.0031L29.5187 14.7656C29.3743 14.0837 29.09 13.789 28.666 13.8787C28.3635 13.9428 28.2038 14.1587 28.1849 14.527C28.1762 14.7135 28.215 15.0163 28.3039 15.4356L28.8638 18.0745H28.864ZM39.1714 19.0046C39.2508 19.5058 39.0876 19.7875 38.6797 19.8521L37.7364 20.0016C37.3285 20.0663 37.0822 19.8405 37 19.3212L36.8136 18.1474C36.7844 17.9649 36.6637 17.0749 36.4514 15.4779C36.239 13.8812 36.1241 13.0292 36.1077 12.9246C36.0794 12.7463 36.0501 12.6345 36.0203 12.5912C35.9751 12.523 35.889 12.4977 35.7684 12.5168C35.6191 12.5405 35.5243 12.6492 35.4843 12.8429C35.4751 12.8991 35.4598 13.1345 35.4373 13.5536C35.3712 14.8932 35.4349 16.8929 35.6241 19.553C35.6457 19.89 35.5861 20.1185 35.4458 20.2436C35.3355 20.341 35.1101 20.4178 34.7667 20.4723L34.2429 20.5554C33.9486 20.6019 33.76 20.6091 33.6774 20.5788C33.5679 20.5367 33.4954 20.3976 33.4575 20.1593C33.3844 19.698 33.3477 19.0645 33.3506 18.2624C33.3528 17.5131 33.3829 16.8826 33.4451 16.368C33.4253 16.1838 33.4094 15.9123 33.3959 15.5536C33.4211 14.6178 33.5372 13.2909 33.7428 11.5775C33.7796 11.2474 33.8643 11.017 33.9925 10.8894C34.1228 10.7613 34.3713 10.6695 34.7437 10.6105L37.1606 10.2273C37.5441 10.1666 37.768 10.3388 37.832 10.7421C37.8273 10.7129 37.8479 10.8285 37.895 11.0953C37.9414 11.3595 37.9906 11.6533 38.0425 11.9808C38.05 12.0275 38.0798 12.2008 38.1319 12.501C38.1841 12.801 38.2302 13.077 38.27 13.3286C38.2992 13.5114 38.3779 14.0355 38.5042 14.9039C38.6329 15.7719 38.7493 16.5484 38.8585 17.2365C38.919 17.6174 38.9876 18.0063 39.0589 18.3968C39.1326 18.7894 39.1692 18.9913 39.1714 19.0049V19.0046ZM39.634 14.9003C39.5539 13.9428 39.5201 13.2441 39.5306 12.8019C39.5493 12.1326 39.656 11.569 39.8464 11.1096C40.2496 10.1614 41.1204 9.63133 42.4612 9.51923C43.4668 9.43519 44.2236 9.6797 44.7289 10.2509C45.2348 10.8241 45.5423 11.7648 45.6521 13.0774L45.6888 13.5136C45.8717 15.6984 45.8672 17.102 45.6768 17.7247C45.3294 18.8493 44.4144 19.4735 42.934 19.5972C41.8452 19.6882 41.049 19.3519 40.5479 18.5902C40.086 17.8911 39.7813 16.6603 39.6338 14.9003H39.634ZM42.1468 16.0144C42.1797 16.4076 42.2203 16.6781 42.2686 16.8188C42.3788 17.1334 42.572 17.2777 42.8509 17.2546C43.1816 17.227 43.3793 17.0428 43.4434 16.7003C43.4843 16.4594 43.471 15.9217 43.4016 15.0923L43.2106 12.8132C43.1524 12.1186 42.9075 11.7905 42.4755 11.8267C42.1673 11.8526 41.982 12.0468 41.9171 12.4098C41.885 12.5938 41.8858 12.8993 41.9216 13.3261L42.1468 16.0145V16.0144ZM50.8911 9.93476C50.8931 9.9912 50.8922 10.0904 50.8883 10.2329C50.8843 10.3751 50.8838 10.4856 50.8866 10.5647C50.9004 10.9502 50.8366 11.1893 50.6953 11.2801C50.5781 11.3497 50.2454 11.3956 49.6924 11.4152L49.316 11.4287C49.0653 11.4375 48.9146 11.5128 48.8608 11.6569C48.8386 11.7231 48.8313 11.9062 48.842 12.2059C48.8636 12.8122 48.9008 13.7274 48.9513 14.9486C49.0037 16.17 49.0411 17.0851 49.0627 17.6937C49.0687 17.8605 49.0819 18.0427 49.1024 18.2361C49.1227 18.4317 49.1338 18.5443 49.1345 18.5691C49.1469 18.9141 48.9772 19.0915 48.6252 19.104C48.5461 19.1068 48.4149 19.1026 48.2293 19.091C48.0461 19.0795 47.9036 19.0758 47.8021 19.0794C47.7368 19.0815 47.6423 19.0939 47.5167 19.1164C47.3907 19.1391 47.2987 19.1513 47.2378 19.1535C47.0957 19.1586 47.0018 19.1214 46.9538 19.044C46.9177 18.9843 46.8952 18.8566 46.8882 18.6628L46.8787 18.3924C46.877 18.3426 46.8744 18.2705 46.871 18.1736C46.8674 18.0767 46.8651 18.0067 46.8634 17.9616L46.6034 10.6765C46.6016 10.6226 46.598 10.5256 46.5929 10.3813C46.5878 10.2393 46.5839 10.1266 46.5808 10.041C46.5721 9.79521 46.611 9.62234 46.6956 9.52466C46.7802 9.42682 46.9341 9.37379 47.1598 9.36573C47.1981 9.36449 47.2591 9.36216 47.3401 9.35922C47.4216 9.35643 47.4824 9.35426 47.5229 9.35286C47.5613 9.35147 47.6246 9.34914 47.7079 9.34619C47.7914 9.3434 47.8546 9.34092 47.8997 9.33937L49.8084 9.27131C49.8897 9.26852 49.9775 9.26526 50.0747 9.262C50.1716 9.25844 50.2257 9.25658 50.2393 9.25596C50.4763 9.24758 50.6426 9.29146 50.7362 9.38496C50.8301 9.48109 50.8819 9.6642 50.8914 9.9346L50.8911 9.93476ZM51.4423 14.1367C51.4538 13.1759 51.4869 12.4769 51.5395 12.0378C51.6219 11.3735 51.782 10.8226 52.0153 10.3833C52.5068 9.47783 53.4242 9.03315 54.7697 9.04912C55.7787 9.06106 56.5087 9.37643 56.9575 9.99306C57.4063 10.6119 57.6226 11.5777 57.6071 12.8948L57.6019 13.3323C57.5759 15.5246 57.4374 16.9214 57.1887 17.523C56.7356 18.6094 55.7652 19.1437 54.2798 19.126C53.1872 19.1132 52.4268 18.7026 52.0005 17.8967C51.6076 17.1568 51.4215 15.9027 51.4423 14.1369V14.1367ZM53.8376 15.4847C53.8328 15.8793 53.8477 16.1525 53.8822 16.2972C53.9618 16.6208 54.1406 16.7831 54.4205 16.7862C54.7523 16.7902 54.9666 16.6257 55.0631 16.2908C55.1269 16.0547 55.1648 15.5184 55.1746 14.6862L55.2017 12.3994C55.21 11.7025 54.9975 11.3525 54.5641 11.3473C54.2548 11.3437 54.0518 11.5195 53.9526 11.8746C53.9031 12.0546 53.8747 12.3588 53.8696 12.7873L53.8376 15.4847ZM64.2643 18.259C64.2318 18.804 64.1846 19.14 64.1185 19.2626C64.0345 19.4203 63.823 19.5138 63.4865 19.5436C63.0823 19.5715 62.7876 19.5811 62.6031 19.5701C62.4972 19.5637 62.4018 19.531 62.3171 19.474C62.1957 19.3853 62.115 19.3354 62.0753 19.3195C61.8499 19.227 61.3928 19.1591 60.7033 19.1181C60.1736 19.0865 59.8451 19.1326 59.7135 19.2535C59.6198 19.345 59.3105 19.3741 58.7876 19.343C58.6503 19.3349 58.4894 19.3026 58.3027 19.2485C58.0112 19.1679 57.8576 19.1271 57.8398 19.1215C57.7305 19.0969 57.6767 18.9378 57.676 18.6462C57.6754 18.6553 57.6973 18.2882 57.7417 17.5453C57.7693 17.0814 57.9096 16.8502 58.161 16.8471C58.3011 16.8465 58.4268 16.5578 58.5382 15.9815C58.614 15.5838 58.6874 15.1883 58.7606 14.7951C58.7852 14.6112 58.8281 14.3428 58.888 13.987C59.3455 12.1544 59.6975 10.8807 59.9436 10.1678C60.0547 9.85599 60.1891 9.65149 60.3443 9.55225C60.5017 9.45318 60.7664 9.41457 61.1406 9.43674L63.5901 9.5828C63.9776 9.6059 64.1591 9.82235 64.1349 10.23C64.1366 10.2005 64.1321 10.3179 64.1205 10.5884C64.109 10.8565 64.0936 11.1539 64.0738 11.4848C64.071 11.5319 64.0628 11.7079 64.0489 12.0119C64.0356 12.3162 64.021 12.5955 64.0058 12.85C63.9948 13.0346 63.9588 13.5634 63.8975 14.4388C63.8362 15.314 63.7851 16.0973 63.7435 16.793C63.7297 17.025 63.8165 17.1611 64.0044 17.1972C64.2189 17.2417 64.3121 17.4618 64.2886 17.8557L64.2645 18.2589L64.2643 18.259ZM61.9808 11.9907C61.9873 11.8059 61.9806 11.6902 61.9606 11.646C61.9334 11.5699 61.8591 11.5271 61.7374 11.5197C61.5774 11.5102 61.457 11.5956 61.3717 11.776C61.3405 11.8442 61.2726 12.0727 61.1657 12.4596C60.8643 13.5669 60.6336 14.7076 60.4706 15.8866C60.4283 16.2141 60.4056 16.407 60.4022 16.4632C60.3788 16.8549 60.5633 17.0627 60.9553 17.0861C61.2865 17.1058 61.493 17.0592 61.5812 16.9447C61.6134 16.8971 61.6457 16.7363 61.6757 16.4601C61.8416 14.9312 61.944 13.4415 61.9806 11.9907H61.9808ZM64.9271 14.44C65.1185 12.6752 65.4812 11.4849 66.0131 10.8709C66.5785 10.2218 67.5321 9.97104 68.8677 10.1154C69.1569 10.1469 69.3515 10.2177 69.4463 10.3278C69.5433 10.438 69.5769 10.6322 69.5464 10.9127C69.543 10.9441 69.5323 11.0223 69.5139 11.1519C69.4952 11.2812 69.4808 11.3933 69.4704 11.4897C69.4661 11.5279 69.4625 11.6046 69.4592 11.7175C69.4561 11.8307 69.4508 11.9211 69.4434 11.9904C69.4134 12.2662 69.3033 12.4448 69.1128 12.5262C68.9193 12.5098 68.6443 12.512 68.2837 12.5297C67.9519 12.5959 67.7194 12.8135 67.5822 13.1778C67.4719 13.4629 67.3698 14.028 67.2782 14.8735C67.175 15.8266 67.153 16.4707 67.2143 16.8062C67.2919 17.2434 67.5268 17.4844 67.9218 17.5272C68.0003 17.5356 68.0996 17.5418 68.2219 17.5459C68.3419 17.5498 68.423 17.554 68.4614 17.5582C68.7193 17.5861 68.8293 17.7863 68.7896 18.1542C68.7612 18.4164 68.7388 18.6637 68.7232 18.8933C68.7069 19.1254 68.7004 19.2288 68.7027 19.2087C68.6727 19.4845 68.5827 19.6653 68.4324 19.7535C68.2843 19.8419 68.0341 19.867 67.6839 19.8292C67.0444 19.76 66.5592 19.6464 66.2293 19.4859C65.8266 19.2836 65.5016 18.9513 65.254 18.4911C64.828 17.7077 64.7197 16.3598 64.9275 14.4402L64.9271 14.44ZM74.7388 20.5657C74.7106 20.7438 74.5517 20.8099 74.2638 20.7643C74.2371 20.7601 74.1553 20.7427 74.0186 20.7119C73.8794 20.6806 73.7533 20.6559 73.6415 20.6384C73.6015 20.632 73.5271 20.6249 73.4165 20.6165C73.3057 20.6082 73.2138 20.5981 73.1401 20.5863C72.8077 20.5337 72.608 20.4677 72.5403 20.3909C72.4725 20.3139 72.43 20.0925 72.4101 19.7284C72.3584 18.455 72.2743 17.3158 72.1626 16.3069L71.9865 16.279L71.4669 19.5517C71.4199 19.8478 71.3581 20.0345 71.2842 20.1118C71.1874 20.2174 71.0086 20.2486 70.7479 20.2072L70.1147 20.1069C69.7244 20.0449 69.4926 19.9512 69.4192 19.8231C69.3647 19.7207 69.3675 19.4721 69.4296 19.0825C69.4186 19.1516 69.4805 18.7753 69.6181 17.9522C69.7556 17.129 69.897 16.2676 70.0402 15.3655L70.7268 10.9136C70.7675 10.6573 70.8676 10.5021 71.0285 10.4522C71.1224 10.4238 71.3108 10.4308 71.5941 10.4756L72.3834 10.6007C72.6578 10.6441 72.806 10.7612 72.8305 10.9523C72.8395 11.0384 72.8322 11.1561 72.8089 11.3031L72.7945 11.3944L72.3274 13.9899L72.5304 14.0222C73.133 12.7611 73.561 11.7784 73.8146 11.0742C73.9067 10.9244 74.0757 10.8689 74.3233 10.9082L75.5517 11.1029C75.9083 11.1595 76.0735 11.2722 76.0466 11.4417C76.0388 11.4907 75.94 11.6943 75.7479 12.0566C75.352 12.7794 74.8236 13.63 74.1656 14.6081C74.0675 14.7501 74.0076 14.8822 73.9874 15.0092C73.9808 15.0515 74.0268 15.3077 74.1266 15.7734C74.2604 16.3997 74.3675 16.9923 74.4479 17.5507C74.6946 19.2206 74.7932 20.2274 74.7393 20.566L74.7388 20.5657ZM81.0869 21.353C80.9963 21.7304 80.914 21.9565 80.842 22.0344C80.734 22.1453 80.5256 22.1625 80.2162 22.0882L79.5465 21.9276C79.268 21.8608 79.1038 21.7611 79.0549 21.6264C79.0105 21.5113 79.0262 21.2924 79.103 20.9721L79.9849 17.303L79.7214 17.2397L77.7726 20.653C77.5744 21.0046 77.4306 21.2066 77.3407 21.2617C77.2434 21.3287 77.0617 21.3316 76.7938 21.2673L75.7271 21.0113C75.4657 20.9486 75.322 20.8122 75.2961 20.6016C75.2739 20.4618 75.3152 20.1839 75.4152 19.7672C75.5603 19.1642 75.7036 18.5862 75.843 18.0351C75.9842 17.4869 76.0492 17.2358 76.0365 17.2884C76.0809 17.1041 76.1316 16.8634 76.1912 16.5668C76.2488 16.2699 76.2913 16.0643 76.3186 15.9503L77.2142 12.2241C77.2259 12.176 77.2346 12.1202 77.2434 12.0549C77.2526 11.9876 77.26 11.9474 77.2642 11.9301C77.33 11.6558 77.4486 11.5104 77.6197 11.4933C77.7127 11.4832 77.8437 11.4984 78.0148 11.5395L78.8294 11.7349C79.0444 11.7865 79.1676 11.8833 79.2002 12.0281C79.2278 12.1344 79.2085 12.3408 79.1403 12.6444L78.2804 16.3375L78.5437 16.4008C79.1052 15.4847 79.6215 14.6019 80.0934 13.75C80.3115 13.3548 80.5301 12.9571 80.7482 12.5617C80.8717 12.3479 81.0663 12.2715 81.3341 12.3358L82.5306 12.6228C82.8027 12.6883 82.9583 12.8139 82.9995 12.9999C83.0299 13.1348 83.0026 13.3835 82.915 13.7474L81.0869 21.3532V21.353ZM84.2462 14.0868C84.2515 14.0694 84.2644 14.0263 84.2852 13.9572C84.306 13.888 84.3255 13.8232 84.3431 13.7649C84.4295 13.4775 84.5597 13.3189 84.7338 13.2888C84.8629 13.2592 85.1192 13.3009 85.5017 13.4158L87.5253 14.0235C87.5384 14.0274 87.5685 14.0364 87.6205 14.0519C87.6703 14.067 87.7114 14.0792 87.7393 14.0877C87.7393 14.0877 87.7674 14.0961 87.8216 14.1124C87.8778 14.1293 87.9318 14.1454 87.9859 14.1618C88.2518 14.2415 88.4192 14.3437 88.4886 14.4659C88.5573 14.5901 88.5516 14.7816 88.4735 15.0407C88.4191 15.2221 88.3678 15.3998 88.32 15.5739C88.2719 15.7502 88.2487 15.8351 88.2499 15.8309C88.1757 16.077 88.0798 16.2319 87.9657 16.2894C87.8512 16.3493 87.6717 16.3425 87.4274 16.2691C87.3798 16.2549 87.3042 16.2321 87.198 16.2001C87.0944 16.169 87.0078 16.1431 86.9452 16.1243L86.3507 15.9457C86.0978 15.8696 85.9182 16.0041 85.8142 16.3499L85.7629 16.5206C85.6856 16.7777 85.6594 16.951 85.6812 17.0423C85.7082 17.1565 85.8215 17.2424 86.0247 17.3034C86.083 17.321 86.2148 17.3534 86.4174 17.4004C86.6181 17.4462 86.7866 17.4898 86.9162 17.5287C87.2125 17.6177 87.3838 17.7374 87.4297 17.8901C87.4693 18.0176 87.4384 18.2531 87.3346 18.5987L87.2201 18.9791C87.046 19.5579 86.7815 19.794 86.4271 19.6876C86.3665 19.6693 86.225 19.6152 86.0009 19.5289C85.777 19.443 85.5742 19.3726 85.3926 19.3178C85.2197 19.2659 85.0968 19.2668 85.025 19.3181C84.9775 19.3581 84.9241 19.4645 84.8679 19.636L84.6373 20.4029C84.5583 20.6499 84.5572 20.8099 84.6378 20.8787C84.6871 20.9265 84.7864 20.9728 84.9332 21.0169C85.1929 21.0948 85.45 21.1721 85.7031 21.248C85.9583 21.3248 86.0793 21.3612 86.0663 21.3572C86.317 21.4325 86.4578 21.5524 86.4862 21.7164C86.5058 21.847 86.4579 22.1082 86.3389 22.5035C86.1848 23.0154 86.0613 23.3248 85.969 23.4358C85.835 23.5911 85.6068 23.6214 85.2846 23.5246C85.1375 23.4806 84.8288 23.3784 84.3583 23.2182C83.8879 23.0581 83.4878 22.9309 83.1591 22.8322C83.0749 22.8069 82.9281 22.7697 82.7153 22.7247C82.5025 22.6796 82.3377 22.6398 82.2189 22.6039C81.8233 22.4852 81.679 22.2438 81.7881 21.8809C81.8251 21.758 81.9119 21.5319 82.0505 21.1969C82.1884 20.8638 82.2904 20.5882 82.3559 20.3698L84.2464 14.0863L84.2462 14.0868Z" fill="#2B2A29"/>
<path d="M45.0226 109.475C44.8752 109.961 44.6052 110.143 44.2099 110.023L43.2962 109.746C42.9009 109.627 42.7781 109.316 42.9307 108.813L43.2761 107.676C43.3298 107.498 43.6101 106.645 44.1169 105.116C44.6238 103.587 44.8929 102.77 44.9236 102.669C44.9759 102.496 44.9986 102.383 44.9907 102.331C44.9798 102.25 44.9134 102.19 44.7967 102.154C44.652 102.11 44.5192 102.167 44.3985 102.324C44.3656 102.37 44.2489 102.575 44.0454 102.943C43.4004 104.119 42.5839 105.946 41.5916 108.421C41.4637 108.734 41.3101 108.914 41.1293 108.965C40.9876 109.004 40.7511 108.975 40.4185 108.874L39.9108 108.72C39.6257 108.634 39.453 108.558 39.3918 108.495C39.3117 108.409 39.3074 108.252 39.3775 108.021C39.5132 107.574 39.7571 106.988 40.1103 106.268C40.4398 105.595 40.7424 105.041 41.0234 104.605C41.0858 104.431 41.1904 104.179 41.3349 103.851C41.7665 103.02 42.4507 101.877 43.3846 100.425C43.562 100.144 43.7388 99.9737 43.9099 99.9149C44.0833 99.8566 44.3469 99.8822 44.7077 99.9917L47.0495 100.701C47.4212 100.814 47.5472 101.067 47.4286 101.457C47.437 101.429 47.4052 101.542 47.3309 101.803C47.2575 102.061 47.1729 102.346 47.0767 102.664C47.063 102.709 47.014 102.878 46.9299 103.171C46.8458 103.464 46.7666 103.732 46.6924 103.976C46.6387 104.153 46.4804 104.658 46.2148 105.495C45.9513 106.332 45.7166 107.081 45.5143 107.748C45.4022 108.117 45.2939 108.497 45.1871 108.879C45.0821 109.264 45.0267 109.462 45.0226 109.475V109.475ZM47.8801 106.186C47.9611 105.228 48.0447 104.534 48.129 104.1C48.2594 103.443 48.4589 102.905 48.7235 102.484C49.2792 101.616 50.2265 101.239 51.5673 101.352C52.5729 101.437 53.2783 101.805 53.681 102.452C54.0837 103.102 54.2296 104.081 54.1186 105.393L54.0817 105.829C53.8967 108.014 53.6574 109.397 53.3658 109.979C52.835 111.03 51.8285 111.493 50.3482 111.367C49.2595 111.276 48.5308 110.811 48.1642 109.976C47.8256 109.21 47.7311 107.946 47.8801 106.186V106.186ZM50.1714 107.704C50.1381 108.097 50.1329 108.37 50.1568 108.517C50.2129 108.846 50.3794 109.02 50.6582 109.044C50.9888 109.072 51.2144 108.923 51.335 108.596C51.4159 108.365 51.4925 107.833 51.5625 107.004L51.7554 104.725C51.8142 104.03 51.6277 103.666 51.1957 103.63C50.8874 103.604 50.6722 103.764 50.5476 104.111C50.485 104.287 50.4348 104.589 50.3988 105.016L50.1714 107.704ZM56.0522 106.515C55.9832 104.742 56.1682 103.511 56.6045 102.826C57.069 102.101 57.9756 101.714 59.3178 101.662C59.6087 101.651 59.8116 101.692 59.9215 101.787C60.0336 101.882 60.0952 102.07 60.1062 102.351C60.1073 102.383 60.108 102.462 60.1087 102.593C60.1093 102.724 60.1113 102.837 60.115 102.934C60.1166 102.972 60.124 103.048 60.1377 103.161C60.151 103.273 60.1589 103.363 60.1617 103.433C60.1726 103.71 60.0896 103.903 59.9131 104.011C59.7191 104.023 59.4476 104.066 59.0934 104.135C58.7748 104.25 58.5767 104.499 58.4943 104.879C58.4267 105.177 58.4084 105.751 58.4415 106.601C58.4787 107.559 58.5509 108.199 58.6608 108.523C58.8014 108.944 59.0691 109.148 59.466 109.132C59.545 109.129 59.6442 109.121 59.7657 109.107C59.8847 109.093 59.9659 109.086 60.0044 109.084C60.2637 109.074 60.4018 109.256 60.4161 109.626C60.4265 109.889 60.4406 110.137 60.4586 110.367C60.4766 110.599 60.4851 110.702 60.4845 110.682C60.4952 110.959 60.4327 111.151 60.2967 111.26C60.1631 111.369 59.9192 111.43 59.5675 111.444C58.9246 111.469 58.4281 111.428 58.0782 111.317C57.6503 111.176 57.2802 110.894 56.968 110.475C56.432 109.762 56.1276 108.445 56.0527 106.515H56.0522ZM68.7617 108.86C68.8431 109.239 68.8665 109.479 68.8351 109.58C68.7856 109.727 68.605 109.832 68.294 109.899L67.6205 110.043C67.3401 110.103 67.149 110.083 67.0468 109.983C66.9571 109.898 66.8765 109.694 66.8075 109.372L66.0171 105.682L65.7522 105.739L65.4698 109.658C65.4429 110.061 65.4005 110.305 65.3433 110.393C65.2843 110.496 65.1215 110.577 64.8523 110.634L63.7795 110.864C63.5167 110.92 63.3282 110.859 63.2138 110.68C63.1334 110.564 63.0504 110.295 62.9607 109.876C62.8308 109.27 62.7104 108.686 62.598 108.129C62.4883 107.574 62.4385 107.319 62.4498 107.372C62.4101 107.187 62.3519 106.948 62.2776 106.655C62.2011 106.362 62.1505 106.158 62.1258 106.044L61.323 102.296C61.3126 102.248 61.2965 102.194 61.2761 102.131C61.2553 102.066 61.2446 102.027 61.2409 102.009C61.1819 101.733 61.2259 101.551 61.3731 101.462C61.4526 101.413 61.5772 101.37 61.7493 101.333L62.5684 101.158C62.7847 101.112 62.9374 101.146 63.0294 101.262C63.1005 101.346 63.1722 101.541 63.2417 101.844L64.0625 105.546L64.3273 105.489C64.4378 104.421 64.5219 103.402 64.5793 102.43C64.6051 101.979 64.6303 101.526 64.6563 101.076C64.675 100.829 64.8178 100.677 65.0871 100.619L66.2902 100.362C66.564 100.303 66.7586 100.349 66.8762 100.499C66.9617 100.608 67.0446 100.844 67.1231 101.21L68.7614 108.859L68.7617 108.86Z" fill="#2B2A29"/>
</svg>
