<svg width="45" height="45" viewBox="0 0 45 45" fill="none" xmlns="http://www.w3.org/2000/svg">
<g clip-path="url(#clip0)">
<path d="M44.956 13.2301C44.8506 10.8391 44.4639 9.19529 43.9101 7.77091C43.3387 6.25897 42.4596 4.90532 41.3078 3.78004C40.1826 2.63723 38.82 1.74923 37.3256 1.18676C35.8929 0.632867 34.2577 0.24621 31.8667 0.14079C29.4578 0.026441 28.6931 0 22.5835 0C16.4739 0 15.7092 0.026441 13.3092 0.131862C10.9182 0.237282 9.27439 0.624283 7.85035 1.17783C6.33807 1.74923 4.98442 2.62831 3.85914 3.78004C2.71633 4.90532 1.82867 6.26789 1.26586 7.76233C0.711969 9.19529 0.325312 10.8302 0.219891 13.2212C0.105543 15.6301 0.0791016 16.3948 0.0791016 22.5044C0.0791016 28.614 0.105543 29.3787 0.210963 31.7787C0.316384 34.1697 0.703384 35.8135 1.25727 37.2379C1.82867 38.7498 2.71633 40.1035 3.85914 41.2288C4.98442 42.3716 6.34699 43.2596 7.84143 43.822C9.27439 44.3759 10.9093 44.7626 13.3006 44.868C15.7002 44.9738 16.4653 44.9999 22.5749 44.9999C28.6845 44.9999 29.4492 44.9738 31.8492 44.868C34.2402 44.7626 35.884 44.3759 37.308 43.822C40.3323 42.6528 42.7233 40.2618 43.8925 37.2379C44.4461 35.8049 44.8331 34.1697 44.9385 31.7787C45.0439 29.3787 45.0704 28.614 45.0704 22.5044C45.0704 16.3948 45.0614 15.6301 44.956 13.2301ZM40.9037 31.6029C40.8068 33.8005 40.4377 34.9873 40.13 35.7785C39.3739 37.7389 37.818 39.2948 35.8576 40.0509C35.0664 40.3586 33.8711 40.7277 31.6819 40.8242C29.3084 40.93 28.5966 40.9561 22.5924 40.9561C16.5882 40.9561 15.8675 40.93 13.5025 40.8242C11.3049 40.7277 10.1181 40.3586 9.32693 40.0509C8.35136 39.6904 7.46335 39.119 6.74258 38.3717C5.99536 37.642 5.42396 36.763 5.0634 35.7874C4.75573 34.9962 4.38658 33.8005 4.29009 31.6118C4.18433 29.2383 4.15823 28.5261 4.15823 22.5219C4.15823 16.5177 4.18433 15.797 4.29009 13.4324C4.38658 11.2347 4.75573 10.0479 5.0634 9.25676C5.42396 8.28085 5.99536 7.39318 6.75151 6.67206C7.48087 5.92485 8.35994 5.35345 9.33586 4.99323C10.127 4.68555 11.3227 4.31641 13.5115 4.21957C15.885 4.11415 16.5972 4.08771 22.601 4.08771C28.6141 4.08771 29.3259 4.11415 31.6909 4.21957C33.8886 4.31641 35.0753 4.68555 35.8665 4.99323C36.8421 5.35345 37.7301 5.92485 38.4508 6.67206C39.1981 7.40177 39.7695 8.28085 40.13 9.25676C40.4377 10.0479 40.8068 11.2433 40.9037 13.4324C41.0091 15.8059 41.0355 16.5177 41.0355 22.5219C41.0355 28.5261 41.0091 29.2293 40.9037 31.6029Z" fill="#FEFEFE"/>
<path d="M22.5835 10.9443C16.2017 10.9443 11.0237 16.122 11.0237 22.5042C11.0237 28.8865 16.2017 34.0641 22.5835 34.0641C28.9658 34.0641 34.1434 28.8865 34.1434 22.5042C34.1434 16.122 28.9658 10.9443 22.5835 10.9443ZM22.5835 30.0028C18.4433 30.0028 15.0849 26.6448 15.0849 22.5042C15.0849 18.3636 18.4433 15.0056 22.5835 15.0056C26.7241 15.0056 30.0821 18.3636 30.0821 22.5042C30.0821 26.6448 26.7241 30.0028 22.5835 30.0028Z" fill="#FEFEFE"/>
<path d="M37.2994 10.4873C37.2994 11.9776 36.091 13.186 34.6003 13.186C33.11 13.186 31.9016 11.9776 31.9016 10.4873C31.9016 8.99662 33.11 7.78857 34.6003 7.78857C36.091 7.78857 37.2994 8.99662 37.2994 10.4873Z" fill="#FEFEFE"/>
</g>
<defs>
<clipPath id="clip0">
<rect width="45" height="45" fill="white"/>
</clipPath>
</defs>
</svg>
