<svg width="183" height="104" viewBox="0 0 183 104" fill="none" xmlns="http://www.w3.org/2000/svg">
<path d="M7.89209 73.2329C8.98805 73.2329 9.97163 73.3529 10.8405 73.5937C11.7094 73.8346 12.444 74.185 13.0436 74.6443C13.6431 75.1036 14.1034 75.6653 14.4246 76.3293C14.7458 76.9934 14.9076 77.7484 14.9076 78.5939C14.9076 79.4403 14.7458 80.1953 14.4246 80.8591C14.1034 81.5232 13.6431 82.0844 13.0436 82.5442C12.444 83.0039 11.7094 83.3541 10.8396 83.5947C9.96932 83.8356 8.98573 83.9556 7.88977 83.9556H3.17368V88.5512H0.000488281V73.2329H7.89209ZM3.17368 74.8741V82.3147H7.88076C9.03267 82.3147 9.92655 82.0123 10.5622 81.4067C11.1978 80.8009 11.5141 79.8638 11.5141 78.5941C11.5141 77.3254 11.1975 76.3881 10.5622 75.7825C9.92655 75.1773 9.03267 74.8743 7.88076 74.8743H3.17368V74.8741Z" fill="#1D1D1B"/>
<path d="M23.9689 92.4899H20.9058L22.4374 88.551H20.5768L15.98 77.1714H19.044L22.8753 86.6912H23.0942L26.7063 77.1714H29.7708L23.9689 92.4899Z" fill="#1D1D1B"/>
<path d="M37.2144 76.7339C37.6805 76.7339 38.1476 76.7743 38.6146 76.8545C39.0817 76.9348 39.5298 77.0441 39.9608 77.1828C40.3908 77.3215 40.7929 77.4927 41.1645 77.6968C41.5374 77.9012 41.8604 78.1275 42.139 78.375L41.2632 79.6884C40.6648 79.2367 40.0551 78.8863 39.4352 78.6378C38.8156 78.3903 38.1473 78.2662 37.432 78.2662C36.9064 78.2662 36.426 78.3498 35.988 78.5176C35.5501 78.6857 35.1707 78.9554 34.8495 79.3276C34.5284 79.6993 34.2768 80.1775 34.0937 80.7607C33.9108 81.3443 33.8211 82.0449 33.8211 82.862C33.8211 83.6794 33.9108 84.3791 34.0937 84.9627C34.2768 85.5464 34.5351 86.0241 34.872 86.3958C35.2065 86.7677 35.6118 87.0384 36.087 87.2058C36.5608 87.3736 37.0817 87.4572 37.6509 87.4572C38.3663 87.4572 39.0331 87.3338 39.6542 87.0856C40.275 86.8375 40.8835 86.4874 41.4822 86.035L42.3569 87.3484C42.0808 87.5966 41.755 87.8227 41.3834 88.0266C41.0116 88.2313 40.6096 88.4026 40.1797 88.5411C39.7497 88.6793 39.3007 88.7886 38.8336 88.8689C38.3665 88.9491 37.8995 88.9895 37.4322 88.9895C36.3968 88.9895 35.4516 88.8541 34.5982 88.5843C33.7448 88.315 33.0171 87.9209 32.4197 87.4029C31.8211 86.8854 31.3575 86.2467 31.0296 85.4879C30.7018 84.7297 30.5376 83.8541 30.5376 82.8623C30.5376 81.8848 30.7018 81.0129 31.0296 80.2469C31.3575 79.4813 31.8134 78.8392 32.3973 78.3209C32.9811 77.8036 33.6819 77.4095 34.4992 77.1396C35.3168 76.8696 36.2218 76.7343 37.2144 76.7343V76.7339Z" fill="#1D1D1B"/>
<path d="M50.1287 76.7339C50.5946 76.7339 51.0619 76.7743 51.529 76.8545C51.996 76.9348 52.4439 77.0441 52.8751 77.1828C53.3051 77.3215 53.707 77.4927 54.0788 77.6968C54.4515 77.9012 54.7747 78.1275 55.0534 78.375L54.1775 79.6884C53.5789 79.2367 52.9692 78.8863 52.3495 78.6378C51.7296 78.3903 51.0617 78.2662 50.3463 78.2662C49.8207 78.2662 49.3403 78.3498 48.9023 78.5176C48.4644 78.6857 48.0848 78.9554 47.7636 79.3276C47.4425 79.6993 47.1911 80.1775 47.008 80.7607C46.8251 81.3443 46.7354 82.0449 46.7354 82.862C46.7354 83.6794 46.8251 84.3791 47.008 84.9627C47.1911 85.5464 47.4494 86.0241 47.7863 86.3958C48.1208 86.7677 48.5262 87.0384 49.0011 87.2058C49.4751 87.3736 49.996 87.4572 50.5652 87.4572C51.2804 87.4572 51.9475 87.3338 52.5685 87.0856C53.1893 86.8375 53.7979 86.4874 54.3965 86.035L55.2712 87.3484C54.9951 87.5966 54.6693 87.8227 54.2975 88.0266C53.926 88.2313 53.5239 88.4026 53.094 88.5411C52.664 88.6793 52.215 88.7886 51.7479 88.8689C51.2806 88.9491 50.8136 88.9895 50.3465 88.9895C49.3111 88.9895 48.3659 88.8541 47.5123 88.5843C46.6589 88.315 45.9315 87.9209 45.3342 87.4029C44.7356 86.8854 44.272 86.2467 43.9442 85.4879C43.6163 84.7297 43.4521 83.8541 43.4521 82.8623C43.4521 81.8848 43.6163 81.0129 43.9442 80.2469C44.272 79.4813 44.728 78.8392 45.3118 78.3209C45.8954 77.8036 46.596 77.4095 47.4136 77.1396C48.2311 76.8696 49.1359 76.7343 50.1287 76.7343V76.7339Z" fill="#1D1D1B"/>
<path d="M62.9338 83.6271H60.6353V88.551H57.5708V77.1714H60.6353V82.0955H62.9338L66.3269 77.1714H69.6102L65.7792 82.7522L69.8289 88.551H66.3269L62.9338 83.6271Z" fill="#1D1D1B"/>
<path d="M84.0581 77.1714V88.551H80.9938V80.0166H80.7737L75.7399 88.551H71.7998V77.1714H74.8643V85.706H75.0833L80.118 77.1714H84.0581Z" fill="#1D1D1B"/>
<path d="M99.3818 77.1714V88.551H96.3166V80.0166H96.0976L91.0639 88.551H87.1226V77.1714H90.1878V85.706H90.4058L95.4405 77.1714H99.3818Z" fill="#1D1D1B"/>
<path d="M118.863 87.3479C119.856 87.3479 120.808 87.1762 121.72 86.8334C122.631 86.4913 123.503 85.9331 124.336 85.1592L125.429 86.4726C124.598 87.246 123.59 87.859 122.409 88.3106C121.227 88.7632 119.972 88.9893 118.644 88.9893C117.272 88.9893 116.035 88.8141 114.933 88.4639C113.832 88.1135 112.89 87.5962 112.11 86.9103C111.329 86.2245 110.727 85.3781 110.303 84.3717C109.88 83.3648 109.669 82.2054 109.669 80.8918C109.669 79.5791 109.877 78.4189 110.293 77.4125C110.709 76.4057 111.299 75.5597 112.065 74.8739C112.832 74.1885 113.754 73.6707 114.834 73.3203C115.914 72.9701 117.112 72.7949 118.425 72.7949C119.752 72.7949 121.008 73.021 122.19 73.4736C123.372 73.9259 124.379 74.5385 125.211 75.3116L124.116 76.6243C123.285 75.8516 122.412 75.2936 121.5 74.9508C120.587 74.6078 119.635 74.4358 118.644 74.4358C117.856 74.4358 117.118 74.5639 116.433 74.8193C115.746 75.0747 115.155 75.4649 114.659 75.9903C114.162 76.5148 113.773 77.1828 113.489 77.9922C113.204 78.8022 113.062 79.7688 113.062 80.8918C113.062 82.0154 113.204 82.982 113.489 83.7919C113.773 84.6012 114.174 85.2685 114.692 85.7939C115.21 86.3193 115.823 86.7099 116.532 86.9649C117.239 87.2203 118.016 87.3481 118.863 87.3481L118.863 87.3479Z" fill="#1D1D1B"/>
<path d="M133.53 87.4568C134.244 87.4568 134.912 87.3334 135.533 87.0851C136.153 86.8371 136.761 86.4869 137.361 86.0345L138.236 87.3479C137.958 87.5962 137.634 87.8222 137.262 88.0261C136.889 88.2309 136.487 88.4022 136.059 88.5406C135.628 88.6789 135.178 88.7882 134.711 88.8684C134.244 88.9486 133.777 88.9891 133.311 88.9891C132.275 88.9891 131.329 88.8536 130.476 88.5839C129.622 88.3146 128.896 87.9205 128.297 87.4025C127.7 86.8849 127.236 86.2463 126.907 85.4874C126.579 84.7292 126.416 83.8537 126.416 82.8618C126.416 81.8843 126.573 81.0124 126.886 80.2464C127.199 79.4808 127.637 78.8387 128.198 78.3205C128.761 77.8032 129.429 77.4091 130.202 77.1391C130.976 76.8691 131.83 76.7339 132.764 76.7339C133.639 76.7339 134.464 76.8654 135.237 77.128C136.01 77.3906 136.682 77.7734 137.251 78.2768C137.82 78.7802 138.273 79.3893 138.608 80.1042C138.945 80.8194 139.112 81.6286 139.112 82.5336V84.0654H129.764C129.939 85.2766 130.359 86.1443 131.024 86.6697C131.687 87.1951 132.523 87.4572 133.53 87.4572L133.53 87.4568ZM132.764 78.1566C132.34 78.1566 131.947 78.2368 131.581 78.397C131.217 78.5581 130.899 78.8128 130.629 79.163C130.359 79.5132 130.14 79.9655 129.973 80.5201C129.804 81.0748 129.714 81.7454 129.699 82.5334H135.827C135.827 81.7745 135.74 81.1185 135.566 80.5638C135.391 80.0095 135.16 79.5536 134.875 79.1961C134.591 78.8385 134.263 78.5759 133.892 78.4081C133.519 78.2403 133.143 78.1566 132.764 78.1566H132.764Z" fill="#1D1D1B"/>
<path d="M152.792 80.3448C152.792 80.8995 152.591 81.3732 152.191 81.7673C151.79 82.1611 151.151 82.4166 150.276 82.5333C151.326 82.6937 152.117 83.0256 152.65 83.5291C153.183 84.0318 153.449 84.6122 153.449 85.2682C153.449 85.7358 153.344 86.1697 153.132 86.5703C152.92 86.972 152.596 87.3185 152.158 87.6097C151.72 87.9021 151.165 88.1319 150.494 88.2995C149.822 88.4673 149.021 88.551 148.086 88.551H141.628V77.1714H147.43C148.363 77.1714 149.167 77.2555 149.838 77.4229C150.508 77.5914 151.063 77.8167 151.501 78.1015C151.939 78.3861 152.264 78.7215 152.475 79.1084C152.687 79.4951 152.792 79.907 152.792 80.3446V80.3448ZM147.43 81.9862C148.086 81.9862 148.596 81.8216 148.963 81.4938C149.326 81.1656 149.509 80.7821 149.509 80.3448C149.509 79.9072 149.326 79.5238 148.963 79.196C148.596 78.8678 148.087 78.7032 147.43 78.7032H144.693V81.9859H147.43V81.9862ZM148.086 87.0194C148.742 87.0194 149.254 86.8516 149.618 86.5159C149.983 86.1805 150.166 85.7645 150.166 85.2682C150.166 84.7726 149.983 84.3568 149.618 84.0212C149.254 83.6856 148.742 83.5177 148.086 83.5177H144.693V87.0194H148.086Z" fill="#1D1D1B"/>
<path d="M162.424 87.4568C163.14 87.4568 163.806 87.3334 164.427 87.0851C165.049 86.8371 165.657 86.4869 166.256 86.0345L167.13 87.3479C166.854 87.5962 166.528 87.8222 166.157 88.0261C165.785 88.2309 165.383 88.4022 164.953 88.5406C164.523 88.6789 164.074 88.7882 163.607 88.8684C163.14 88.9486 162.672 88.9891 162.205 88.9891C161.17 88.9891 160.225 88.8536 159.371 88.5839C158.518 88.3146 157.79 87.9205 157.193 87.4025C156.594 86.8849 156.13 86.2463 155.803 85.4874C155.475 84.7292 155.311 83.8537 155.311 82.8618C155.311 81.8843 155.467 81.0124 155.78 80.2464C156.095 79.4808 156.533 78.8387 157.094 78.3205C157.656 77.8032 158.324 77.4091 159.097 77.1391C159.87 76.8691 160.724 76.7339 161.659 76.7339C162.533 76.7339 163.358 76.8654 164.132 77.128C164.905 77.3906 165.576 77.7734 166.146 78.2768C166.715 78.7802 167.167 79.3893 167.503 80.1042C167.839 80.8194 168.006 81.6286 168.006 82.5336V84.0654H158.659C158.835 85.2766 159.255 86.1443 159.918 86.6697C160.582 87.1951 161.417 87.4572 162.425 87.4572L162.424 87.4568ZM161.659 78.1566C161.235 78.1566 160.841 78.2368 160.476 78.397C160.111 78.5581 159.794 78.8128 159.524 79.163C159.254 79.5132 159.034 79.9655 158.867 80.5201C158.7 81.0748 158.608 81.7454 158.594 82.5334H164.723C164.723 81.7745 164.635 81.1185 164.46 80.5638C164.285 80.0095 164.056 79.5536 163.771 79.1961C163.485 78.8385 163.158 78.5759 162.786 78.4081C162.414 78.2403 162.037 78.1566 161.659 78.1566H161.659Z" fill="#1D1D1B"/>
<path d="M176.324 77.1714C177.331 77.1714 178.246 77.3029 179.071 77.5655C179.896 77.8281 180.6 78.2076 181.184 78.7032C181.767 79.1995 182.217 79.7977 182.531 80.498C182.843 81.198 183 81.9859 183 82.8615C183 83.7364 182.843 84.5246 182.531 85.2245C182.217 85.9251 181.767 86.5233 181.184 87.0194C180.6 87.5157 179.896 87.8943 179.071 88.1571C178.246 88.4197 177.331 88.5512 176.324 88.5512H173.588V92.4902H170.523V77.1718H176.323L176.324 77.1714ZM173.588 78.7032V87.0194H176.324C176.82 87.0194 177.276 86.9426 177.692 86.7894C178.108 86.6364 178.466 86.3921 178.765 86.0564C179.063 85.721 179.297 85.2904 179.465 84.7655C179.633 84.2401 179.717 83.6056 179.717 82.8618C179.717 82.1175 179.633 81.483 179.465 80.9576C179.297 80.4326 179.063 80.002 178.765 79.6666C178.466 79.331 178.108 79.0869 177.692 78.9336C177.276 78.7804 176.82 78.7037 176.324 78.7037H173.588V78.7032Z" fill="#1D1D1B"/>
<path d="M92.8548 72.7441H91.5049V75.121H90.6055V72.7441H89.2568V72.374H92.8548V72.7441Z" fill="#1C1D1B"/>
<path d="M96.6452 73.1403C96.6452 73.2739 96.5858 73.3885 96.4677 73.4833C96.3497 73.5788 96.1634 73.6407 95.9065 73.6687C96.2142 73.7073 96.4466 73.7875 96.6027 73.9086C96.7597 74.0304 96.8374 74.1703 96.8374 74.3286C96.8374 74.4414 96.8071 74.5463 96.7442 74.643C96.6822 74.7398 96.5867 74.8237 96.4589 74.8938C96.3299 74.9645 96.1671 75.02 95.9705 75.0604C95.7729 75.1009 95.5382 75.121 95.2644 75.121H93.3691V72.374H95.0713C95.3453 72.374 95.5812 72.3944 95.7775 72.4346C95.9752 72.475 96.1379 72.53 96.2658 72.5987C96.3951 72.6671 96.4892 72.7485 96.552 72.8416C96.614 72.9348 96.6452 73.0339 96.6452 73.14V73.1403ZM95.0711 73.5367C95.2642 73.5367 95.4136 73.4967 95.5204 73.4176C95.6283 73.3386 95.6808 73.2459 95.6808 73.1403C95.6808 73.0342 95.6281 72.9422 95.5204 72.8629C95.4138 72.7834 95.2644 72.7441 95.0711 72.7441H94.2683V73.5365H95.0711V73.5367ZM95.2642 74.7514C95.4561 74.7514 95.6066 74.7109 95.7134 74.63C95.82 74.5484 95.8739 74.4486 95.8739 74.3286C95.8739 74.2091 95.82 74.1085 95.7134 74.0276C95.6068 73.947 95.4561 73.9058 95.2642 73.9058H94.2681V74.7511H95.2642V74.7514Z" fill="#1C1D1B"/>
<path d="M0.0353875 96.2632C0.450881 96.1897 1.22221 96.1284 1.92071 96.1284C2.91332 96.1284 4.55379 96.2872 4.55379 97.6094C4.55379 98.3442 3.99009 98.797 3.31633 98.944V98.9681C4.18662 99.0906 4.82316 99.5806 4.82316 100.438C4.82316 101.992 2.86361 102.188 1.70037 102.188C1.03909 102.188 0.353077 102.139 0.0351562 102.115V96.2632H0.0353875ZM1.05158 101.405C1.35701 101.441 1.57829 101.454 1.92071 101.454C2.64372 101.454 3.72049 101.283 3.72049 100.425C3.72049 99.5684 2.86361 99.3848 1.83517 99.3848H1.05135V101.405H1.05158ZM1.06406 98.6747H1.87262C2.66754 98.6747 3.48835 98.442 3.48835 97.7441C3.48835 97.1566 2.97413 96.8748 1.89597 96.8748C1.54129 96.8748 1.32117 96.8993 1.06406 96.924V98.6747Z" fill="#1D1D1B"/>
<path d="M11.5456 99.1033C11.5456 101.295 10.0277 102.25 8.59484 102.25C6.98998 102.25 5.75391 101.075 5.75391 99.2015C5.75391 97.2181 7.05195 96.0552 8.69242 96.0552C10.3946 96.0552 11.5454 97.2916 11.5454 99.1033H11.5456ZM6.84316 99.1648C6.84316 100.462 7.59091 101.442 8.64409 101.442C9.67277 101.442 10.4439 100.475 10.4439 99.1407C10.4439 98.1366 9.9419 96.863 8.66768 96.863C7.39461 96.863 6.84316 98.0384 6.84316 99.1648Z" fill="#1D1D1B"/>
<path d="M17.3992 96.1899V102.115H16.3335V97.0346H14.3009V98.577C14.3009 100.242 14.1416 101.356 13.3703 101.858C13.0759 102.09 12.7446 102.225 12.1945 102.225L12.0845 101.381C12.2923 101.344 12.5247 101.258 12.6718 101.136C13.223 100.732 13.2838 99.8994 13.2838 98.577V96.1899H17.3992Z" fill="#1D1D1B"/>
<path d="M24.5258 99.1033C24.5258 101.295 23.0065 102.25 21.5738 102.25C19.9704 102.25 18.7329 101.075 18.7329 99.2015C18.7329 97.2181 20.031 96.0552 21.6726 96.0552C23.3748 96.0552 24.526 97.2916 24.526 99.1033H24.5258ZM19.8231 99.1648C19.8231 100.462 20.5697 101.442 21.6233 101.442C22.6515 101.442 23.4231 100.475 23.4231 99.1407C23.4231 98.1366 22.9211 96.863 21.6478 96.863C20.3745 96.863 19.8231 98.0384 19.8231 99.1648Z" fill="#1D1D1B"/>
<path d="M29.4969 96.1899V97.0588H26.9255V102.115H25.8599V96.1899H29.4969Z" fill="#1D1D1B"/>
<path d="M35.717 99.1033C35.717 101.295 34.1991 102.25 32.7662 102.25C31.1618 102.25 29.9253 101.075 29.9253 99.2015C29.9253 97.2181 31.2233 96.0552 32.8638 96.0552C34.566 96.0552 35.7168 97.2916 35.7168 99.1033H35.717ZM31.0145 99.1648C31.0145 100.462 31.7625 101.442 32.8157 101.442C33.8444 101.442 34.6155 100.475 34.6155 99.1407C34.6155 98.1366 34.1135 96.863 32.8393 96.863C31.566 96.863 31.0145 98.0384 31.0145 99.1648Z" fill="#1D1D1B"/>
<path d="M41.5833 96.1897V101.307L42.1962 101.319L42.1345 104H41.2889L41.2406 102.115H37.1377L37.0894 104H36.2438L36.1943 101.319L36.6975 101.307C36.9546 100.927 37.1502 100.523 37.2847 100.095C37.5171 99.3601 37.6283 98.5642 37.6283 97.7319V96.1895H41.583L41.5833 96.1897ZM38.583 97.9889C38.583 98.7725 38.473 99.5318 38.2776 100.192C38.1541 100.596 37.9832 100.964 37.7992 101.295H40.5303V97.0096H38.5832V97.9889H38.583Z" fill="#1D1D1B"/>
<path d="M47.6573 101.894C47.3755 102.041 46.75 102.237 45.9551 102.237C44.1667 102.237 43.0034 101.025 43.0034 99.2133C43.0034 97.3893 44.2531 96.0674 46.1875 96.0674C46.824 96.0674 47.3877 96.2264 47.6809 96.3732L47.436 97.2055C47.1789 97.0585 46.7748 96.9242 46.1875 96.9242C44.8282 96.9242 44.0936 97.9279 44.0936 99.1645C44.0936 100.536 44.975 101.38 46.1505 101.38C46.7625 101.38 47.1667 101.221 47.473 101.086L47.6573 101.894Z" fill="#1D1D1B"/>
<path d="M49.9829 96.1899V98.7603H50.24L52.4689 96.1899H53.7792L51.1956 98.871C52.151 98.9685 52.7261 99.6054 53.1922 100.671C53.3506 101.062 53.5594 101.638 53.8287 102.115H52.7015C52.5432 101.858 52.3344 101.393 52.1513 100.903C51.7471 99.9484 51.1959 99.5076 50.1919 99.5076H49.9832V102.115H48.9175V96.1902H49.9832L49.9829 96.1899Z" fill="#1D1D1B"/>
<path d="M55.7757 96.1899V98.687C55.7757 99.6299 55.7632 100.217 55.714 101.062L55.751 101.075C56.1056 100.352 56.3144 99.9357 56.7063 99.2503L58.5556 96.1899H59.8166V102.115H58.788V99.6051C58.788 98.638 58.8125 98.1362 58.861 97.1816H58.824C58.4444 97.9404 58.1873 98.418 57.8448 99.0173C57.2811 99.9354 56.6321 101.074 55.9956 102.115H54.7593V96.1899H55.7755H55.7757Z" fill="#1D1D1B"/>
<path d="M62.5589 96.1896V98.6867C62.5589 99.6295 62.5464 100.217 62.4983 101.062L62.5344 101.074C62.8902 100.352 63.0979 99.9353 63.4898 99.25L65.339 96.1896H66.6001V102.115H65.5714V99.6048C65.5714 98.6377 65.5959 98.1359 65.6454 97.1812H65.6084C65.2287 97.9401 64.9719 98.4176 64.628 99.017C64.0655 99.9351 63.4165 101.074 62.7799 102.115H61.5425V96.1896H62.5587H62.5589ZM63.2574 93.7778C63.2944 94.3044 63.5515 94.708 64.0412 94.708C64.5677 94.708 64.8126 94.3164 64.8745 93.7778H65.6459C65.5964 94.7815 64.9598 95.2955 64.0167 95.2955C62.9388 95.2955 62.5233 94.6227 62.4738 93.7778H63.2576H63.2574Z" fill="#1D1D1B"/>
<path d="M76.3103 99.1033C76.3103 101.295 74.7923 102.25 73.3595 102.25C71.7551 102.25 70.5186 101.075 70.5186 99.2015C70.5186 97.2181 71.8166 96.0552 73.4571 96.0552C75.1593 96.0552 76.31 97.2916 76.31 99.1033H76.3103ZM71.6078 99.1648C71.6078 100.462 72.3556 101.442 73.409 101.442C74.4372 101.442 75.2088 100.475 75.2088 99.1407C75.2088 98.1366 74.7068 96.863 73.4323 96.863C72.1593 96.863 71.6078 98.0384 71.6078 99.1648Z" fill="#1D1D1B"/>
<path d="M82.1514 94.1822C81.8448 94.292 81.307 94.3897 80.9153 94.451C79.9595 94.5978 79.2614 94.9161 78.8087 95.5649C78.429 96.1037 78.208 96.8995 78.1597 97.5238H78.1958C78.5754 96.6668 79.4082 96.1897 80.2538 96.1897C81.7102 96.1897 82.7757 97.2301 82.7757 99.1155C82.7757 101.05 81.7717 102.25 80.0325 102.25C77.9507 102.25 77.2646 100.254 77.2646 98.2834C77.2646 96.9363 77.5465 95.8344 78.183 95.0023C78.759 94.1822 79.58 93.8024 80.7308 93.6061C81.208 93.5326 81.7965 93.4349 82.2006 93.2881L82.1512 94.1822H82.1514ZM80.0325 96.9857C79.396 96.9857 78.9433 97.3163 78.6984 97.7934C78.5021 98.1486 78.4043 98.577 78.4043 99.0545C78.4043 100.034 78.8815 101.442 80.057 101.442C81.2452 101.442 81.6864 100.291 81.6864 99.2015C81.6864 98.2339 81.3068 96.9857 80.0325 96.9857Z" fill="#1D1D1B"/>
<path d="M88.6289 96.1899V102.115H87.5633V97.0346H85.5309V98.577C85.5309 100.242 85.3716 101.356 84.6 101.858C84.3059 102.09 83.9746 102.225 83.4245 102.225L83.3145 101.381C83.5223 101.344 83.7547 101.258 83.9017 101.136C84.453 100.732 84.5135 99.8994 84.5135 98.577V96.1899H88.6289Z" fill="#1D1D1B"/>
<path d="M93.674 102.115L93.5878 101.368H93.5517C93.2204 101.833 92.5839 102.249 91.7395 102.249C90.5392 102.249 89.9263 101.405 89.9263 100.548C89.9263 99.1153 91.2007 98.332 93.4902 98.3445V98.222C93.4902 97.7322 93.3554 96.851 92.1427 96.851C91.5924 96.851 91.0164 97.0221 90.5998 97.2916L90.3549 96.5815C90.8447 96.2634 91.5552 96.0552 92.302 96.0552C94.1143 96.0552 94.5557 97.2916 94.5557 98.4792V100.695C94.5557 101.209 94.5802 101.711 94.6532 102.115H93.6738H93.674ZM93.5147 99.0911C92.339 99.067 91.004 99.2753 91.004 100.426C91.004 101.123 91.4701 101.454 92.0204 101.454C92.7926 101.454 93.2824 100.965 93.4532 100.462C93.4902 100.352 93.515 100.23 93.515 100.12V99.0911H93.5147Z" fill="#1D1D1B"/>
<path d="M100.519 101.894C100.238 102.041 99.6131 102.237 98.8172 102.237C97.0295 102.237 95.8662 101.025 95.8662 99.2133C95.8662 97.3893 97.1148 96.0674 99.0496 96.0674C99.6861 96.0674 100.25 96.2264 100.544 96.3732L100.299 97.2055C100.042 97.0585 99.6378 96.9242 99.0496 96.9242C97.691 96.9242 96.9555 97.9279 96.9555 99.1645C96.9555 100.536 97.8382 101.38 99.0135 101.38C99.6255 101.38 100.03 101.221 100.335 101.086L100.519 101.894Z" fill="#1D1D1B"/>
<path d="M105.981 96.1899V97.047H104.131V102.115H103.066V97.047H101.216V96.1899H105.981Z" fill="#1D1D1B"/>
<path d="M107.963 96.1899V98.577H110.781V96.1899H111.846V102.115H110.781V99.4341H107.963V102.115H106.899V96.1899H107.963Z" fill="#1D1D1B"/>
<path d="M118.973 99.1033C118.973 101.295 117.453 102.25 116.021 102.25C114.418 102.25 113.18 101.075 113.18 99.2015C113.18 97.2181 114.478 96.0552 116.12 96.0552C117.822 96.0552 118.973 97.2916 118.973 99.1033ZM114.27 99.1648C114.27 100.462 115.017 101.442 116.07 101.442C117.099 101.442 117.87 100.475 117.87 99.1407C117.87 98.1366 117.368 96.863 116.095 96.863C114.822 96.863 114.27 98.0384 114.27 99.1648H114.27Z" fill="#1D1D1B"/>
<path d="M121.323 96.1896V98.6867C121.323 99.6295 121.311 100.217 121.262 101.062L121.299 101.074C121.654 100.352 121.862 99.9353 122.254 99.25L124.103 96.1896H125.364V102.115H124.336V99.6048C124.336 98.6377 124.36 98.1359 124.41 97.1812H124.373C123.993 97.9401 123.736 98.4176 123.392 99.017C122.83 99.9351 122.181 101.074 121.544 102.115H120.307V96.1896H121.323H121.323ZM122.022 93.7778C122.059 94.3044 122.316 94.708 122.805 94.708C123.332 94.708 123.577 94.3164 123.639 93.7778H124.41C124.361 94.7815 123.724 95.2955 122.781 95.2955C121.703 95.2955 121.287 94.6227 121.238 93.7778H122.022H122.022Z" fill="#1D1D1B"/>
<path d="M133.716 96.1899V97.047H131.867V102.115H130.801V97.047H128.952V96.1899H133.716Z" fill="#1D1D1B"/>
<path d="M135.1 99.3479C135.124 100.805 136.054 101.405 137.132 101.405C137.903 101.405 138.37 101.27 138.774 101.099L138.957 101.87C138.577 102.041 137.928 102.237 136.985 102.237C135.16 102.237 134.071 101.038 134.071 99.2503C134.071 97.4626 135.124 96.0552 136.85 96.0552C138.786 96.0552 139.3 97.7569 139.3 98.8463C139.3 99.067 139.275 99.2381 139.263 99.3481H135.1L135.1 99.3479ZM138.259 98.5768C138.272 97.8914 137.977 96.8261 136.765 96.8261C135.675 96.8261 135.198 97.8302 135.112 98.5768H138.259Z" fill="#1D1D1B"/>
<path d="M145.14 96.1899V102.115H144.076V97.0346H142.042V98.577C142.042 100.242 141.883 101.356 141.111 101.858C140.817 102.09 140.487 102.225 139.936 102.225L139.826 101.381C140.033 101.344 140.267 101.258 140.414 101.136C140.964 100.732 141.026 99.8994 141.026 98.577V96.1899H145.14H145.14Z" fill="#1D1D1B"/>
<path d="M147.504 99.3479C147.528 100.805 148.458 101.405 149.536 101.405C150.307 101.405 150.773 101.27 151.178 101.099L151.361 101.87C150.981 102.041 150.332 102.237 149.389 102.237C147.564 102.237 146.475 101.038 146.475 99.2503C146.475 97.4626 147.528 96.0552 149.254 96.0552C151.19 96.0552 151.704 97.7569 151.704 98.8463C151.704 99.067 151.68 99.2381 151.667 99.3481H147.504L147.504 99.3479ZM150.663 98.5768C150.676 97.8914 150.381 96.8261 149.169 96.8261C148.079 96.8261 147.601 97.8302 147.516 98.5768H150.663Z" fill="#1D1D1B"/>
<path d="M154.104 96.1899V98.7603H154.361L156.59 96.1899H157.9L155.316 98.871C156.271 98.9685 156.847 99.6054 157.312 100.671C157.472 101.062 157.68 101.638 157.949 102.115H156.823C156.663 101.858 156.455 101.393 156.271 100.903C155.867 99.9484 155.316 99.5076 154.312 99.5076H154.104V102.115H153.039V96.1902H154.104L154.104 96.1899Z" fill="#1D1D1B"/>
<path d="M162.308 102.115L162.222 101.368H162.186C161.855 101.833 161.218 102.249 160.374 102.249C159.173 102.249 158.561 101.405 158.561 100.548C158.561 99.1153 159.835 98.332 162.124 98.3445V98.222C162.124 97.7322 161.989 96.851 160.777 96.851C160.227 96.851 159.651 97.0221 159.234 97.2916L158.989 96.5815C159.479 96.2634 160.189 96.0552 160.936 96.0552C162.749 96.0552 163.19 97.2916 163.19 98.4792V100.695C163.19 101.209 163.215 101.711 163.287 102.115H162.308H162.308ZM162.149 99.0911C160.973 99.067 159.638 99.2753 159.638 100.426C159.638 101.123 160.104 101.454 160.654 101.454C161.427 101.454 161.917 100.965 162.087 100.462C162.124 100.352 162.149 100.23 162.149 100.12V99.0911H162.149Z" fill="#1D1D1B"/>
<path d="M165.969 96.1899V98.577H168.786V96.1899H169.851V102.115H168.786V99.4341H165.969V102.115H164.904V96.1899H165.969Z" fill="#1D1D1B"/>
<path d="M174.895 102.115L174.81 101.368H174.773C174.443 101.833 173.806 102.249 172.961 102.249C171.76 102.249 171.148 101.405 171.148 100.548C171.148 99.1153 172.422 98.332 174.712 98.3445V98.222C174.712 97.7322 174.578 96.851 173.365 96.851C172.814 96.851 172.239 97.0221 171.822 97.2916L171.577 96.5815C172.067 96.2634 172.776 96.0552 173.524 96.0552C175.336 96.0552 175.778 97.2916 175.778 98.4792V100.695C175.778 101.209 175.801 101.711 175.875 102.115H174.895H174.895ZM174.736 99.0911C173.56 99.067 172.226 99.2753 172.226 100.426C172.226 101.123 172.691 101.454 173.243 101.454C174.014 101.454 174.504 100.965 174.675 100.462C174.712 100.352 174.736 100.23 174.736 100.12V99.0911Z" fill="#1D1D1B"/>
<path d="M182.034 96.1899V102.115H180.97V97.0346H178.937V98.577C178.937 100.242 178.777 101.356 178.006 101.858C177.711 102.09 177.381 102.225 176.83 102.225L176.72 101.381C176.928 101.344 177.161 101.258 177.309 101.136C177.859 100.732 177.921 99.8994 177.921 98.577V96.1899H182.035H182.034Z" fill="#1D1D1B"/>
<path d="M97.013 28.9357C97.013 32.1315 94.4215 34.7224 91.2245 34.7224C88.0277 34.7224 85.436 32.1317 85.436 28.9357C85.436 25.7398 88.0275 23.1489 91.2245 23.1489C94.4213 23.1489 97.013 25.7396 97.013 28.9357Z" fill="#E00818"/>
<path d="M91.2245 46.296C89.1947 46.296 87.2467 45.9465 85.436 45.3066V57.2879C87.3063 57.6677 89.2421 57.8674 91.2245 57.8674C99.2162 57.8674 106.451 54.6292 111.689 49.394L103.504 41.2114C100.361 44.3529 96.0199 46.2962 91.2247 46.2962L91.2245 46.296Z" fill="#E00818"/>
<path d="M73.8592 28.9359C73.8592 19.3481 81.634 11.5756 91.2246 11.5756C96.02 11.5756 100.361 13.5188 103.504 16.6604L111.691 8.47568C106.453 3.23906 99.2172 0 91.2246 0C75.2402 0 62.2822 12.9541 62.2822 28.934C62.2822 38.3999 66.8295 46.8035 73.8589 52.0822V28.9359H73.8592Z" fill="#E00818"/>
</svg>
