<svg width="33" height="19" viewBox="0 0 33 19" fill="none" xmlns="http://www.w3.org/2000/svg">
<path d="M32.7059 16.8797C32.6172 16.7312 32.0685 15.539 29.4283 13.0886C26.6644 10.5226 27.0357 10.9393 30.3648 6.50254C32.3924 3.80046 33.203 2.15034 32.9493 1.44491C32.708 0.772488 31.2167 0.949876 31.2167 0.949876L26.258 0.978753C26.258 0.978753 25.8909 0.929249 25.6166 1.0922C25.3505 1.25309 25.1793 1.62436 25.1793 1.62436C25.1793 1.62436 24.3934 3.71589 23.3456 5.4939C21.1365 9.24587 20.2516 9.44388 19.8906 9.2108C19.0511 8.66832 19.2615 7.02851 19.2615 5.86518C19.2615 2.22872 19.8122 0.71267 18.1869 0.320766C17.6465 0.190819 17.2504 0.104188 15.8705 0.0897493C14.1008 0.0711854 12.6012 0.0959372 11.7535 0.51053C11.1883 0.786926 10.7531 1.40366 11.0192 1.43872C11.3471 1.48204 12.0897 1.6388 12.4836 2.17509C12.9931 2.86608 12.9745 4.42132 12.9745 4.42132C12.9745 4.42132 13.2674 8.70133 12.2918 9.23349C11.6214 9.59858 10.7036 8.85396 8.73373 5.44852C7.7251 3.70558 6.96192 1.777 6.96192 1.777C6.96192 1.777 6.81547 1.4181 6.55351 1.22627C6.23586 0.993192 5.79033 0.918936 5.79033 0.918936L1.0751 0.947813C1.0751 0.947813 0.367613 0.96844 0.107718 1.27578C-0.123299 1.55011 0.0891546 2.11527 0.0891546 2.11527C0.0891546 2.11527 3.7813 10.7516 7.96024 15.1059C11.7947 19.0971 16.1469 18.8351 16.1469 18.8351H18.1188C18.1188 18.8351 18.7149 18.7691 19.0181 18.4412C19.2986 18.14 19.2883 17.5749 19.2883 17.5749C19.2883 17.5749 19.2491 14.9285 20.4785 14.5386C21.6893 14.155 23.2445 17.0963 24.8926 18.2287C26.1384 19.0847 27.0852 18.897 27.0852 18.897L31.493 18.8351C31.493 18.8351 33.7991 18.6928 32.7059 16.8797Z" fill="#2C2C2C"/>
</svg>
